<?xml version="1.0" encoding="utf-8" standalone="no"?>
<!DOCTYPE svg PUBLIC "-//W3C//DTD SVG 1.1//EN"
  "http://www.w3.org/Graphics/SVG/1.1/DTD/svg11.dtd">
<!-- Created with matplotlib (https://matplotlib.org/) -->
<svg height="648pt" version="1.1" viewBox="0 0 1152 648" width="1152pt" xmlns="http://www.w3.org/2000/svg" xmlns:xlink="http://www.w3.org/1999/xlink">
 <metadata>
  <rdf:RDF xmlns:cc="http://creativecommons.org/ns#" xmlns:dc="http://purl.org/dc/elements/1.1/" xmlns:rdf="http://www.w3.org/1999/02/22-rdf-syntax-ns#">
   <cc:Work>
    <dc:type rdf:resource="http://purl.org/dc/dcmitype/StillImage"/>
    <dc:date>2021-05-22T23:36:57.789483</dc:date>
    <dc:format>image/svg+xml</dc:format>
    <dc:creator>
     <cc:Agent>
      <dc:title>Matplotlib v3.3.4, https://matplotlib.org/</dc:title>
     </cc:Agent>
    </dc:creator>
   </cc:Work>
  </rdf:RDF>
 </metadata>
 <defs>
  <style type="text/css">*{stroke-linecap:butt;stroke-linejoin:round;}</style>
 </defs>
 <g id="figure_1">
  <g id="patch_1">
   <path d="M 0 648 
L 1152 648 
L 1152 0 
L 0 0 
z
" style="fill:none;"/>
  </g>
  <g id="axes_1">
   <g id="patch_2">
    <path d="M 144 278.050909 
L 1036.8 278.050909 
L 1036.8 77.76 
L 144 77.76 
z
" style="fill:#ffffff;"/>
   </g>
   <g id="matplotlib.axis_1">
    <g id="xtick_1">
     <g id="line2d_1">
      <defs>
       <path d="M 0 0 
L 0 3.5 
" id="mabd0de80b3" style="stroke:#000000;stroke-width:0.8;"/>
      </defs>
      <g>
       <use style="stroke:#000000;stroke-width:0.8;" x="156.70118" xlink:href="#mabd0de80b3" y="278.050909"/>
      </g>
     </g>
    </g>
    <g id="xtick_2">
     <g id="line2d_2">
      <g>
       <use style="stroke:#000000;stroke-width:0.8;" x="265.125885" xlink:href="#mabd0de80b3" y="278.050909"/>
      </g>
     </g>
    </g>
    <g id="xtick_3">
     <g id="line2d_3">
      <g>
       <use style="stroke:#000000;stroke-width:0.8;" x="373.55059" xlink:href="#mabd0de80b3" y="278.050909"/>
      </g>
     </g>
    </g>
    <g id="xtick_4">
     <g id="line2d_4">
      <g>
       <use style="stroke:#000000;stroke-width:0.8;" x="481.975295" xlink:href="#mabd0de80b3" y="278.050909"/>
      </g>
     </g>
    </g>
    <g id="xtick_5">
     <g id="line2d_5">
      <g>
       <use style="stroke:#000000;stroke-width:0.8;" x="613.633865" xlink:href="#mabd0de80b3" y="278.050909"/>
      </g>
     </g>
    </g>
    <g id="xtick_6">
     <g id="line2d_6">
      <g>
       <use style="stroke:#000000;stroke-width:0.8;" x="722.05857" xlink:href="#mabd0de80b3" y="278.050909"/>
      </g>
     </g>
    </g>
    <g id="xtick_7">
     <g id="line2d_7">
      <g>
       <use style="stroke:#000000;stroke-width:0.8;" x="845.972519" xlink:href="#mabd0de80b3" y="278.050909"/>
      </g>
     </g>
    </g>
    <g id="xtick_8">
     <g id="line2d_8">
      <g>
       <use style="stroke:#000000;stroke-width:0.8;" x="954.397224" xlink:href="#mabd0de80b3" y="278.050909"/>
      </g>
     </g>
    </g>
   </g>
   <g id="matplotlib.axis_2">
    <g id="ytick_1">
     <g id="line2d_9">
      <defs>
       <path d="M 0 0 
L -3.5 0 
" id="md34dd505b2" style="stroke:#000000;stroke-width:0.8;"/>
      </defs>
      <g>
       <use style="stroke:#000000;stroke-width:0.8;" x="144" xlink:href="#md34dd505b2" y="271.748048"/>
      </g>
     </g>
     <g id="text_1">
      <!-- 0 -->
      <g transform="translate(130.6375 275.547267)scale(0.1 -0.1)">
       <defs>
        <path d="M 31.78125 66.40625 
Q 24.171875 66.40625 20.328125 58.90625 
Q 16.5 51.421875 16.5 36.375 
Q 16.5 21.390625 20.328125 13.890625 
Q 24.171875 6.390625 31.78125 6.390625 
Q 39.453125 6.390625 43.28125 13.890625 
Q 47.125 21.390625 47.125 36.375 
Q 47.125 51.421875 43.28125 58.90625 
Q 39.453125 66.40625 31.78125 66.40625 
z
M 31.78125 74.21875 
Q 44.046875 74.21875 50.515625 64.515625 
Q 56.984375 54.828125 56.984375 36.375 
Q 56.984375 17.96875 50.515625 8.265625 
Q 44.046875 -1.421875 31.78125 -1.421875 
Q 19.53125 -1.421875 13.0625 8.265625 
Q 6.59375 17.96875 6.59375 36.375 
Q 6.59375 54.828125 13.0625 64.515625 
Q 19.53125 74.21875 31.78125 74.21875 
z
" id="DejaVuSans-48"/>
       </defs>
       <use xlink:href="#DejaVuSans-48"/>
      </g>
     </g>
    </g>
    <g id="ytick_2">
     <g id="line2d_10">
      <g>
       <use style="stroke:#000000;stroke-width:0.8;" x="144" xlink:href="#md34dd505b2" y="243.735334"/>
      </g>
     </g>
     <g id="text_2">
      <!-- 10 -->
      <g transform="translate(124.275 247.534553)scale(0.1 -0.1)">
       <defs>
        <path d="M 12.40625 8.296875 
L 28.515625 8.296875 
L 28.515625 63.921875 
L 10.984375 60.40625 
L 10.984375 69.390625 
L 28.421875 72.90625 
L 38.28125 72.90625 
L 38.28125 8.296875 
L 54.390625 8.296875 
L 54.390625 0 
L 12.40625 0 
z
" id="DejaVuSans-49"/>
       </defs>
       <use xlink:href="#DejaVuSans-49"/>
       <use x="63.623047" xlink:href="#DejaVuSans-48"/>
      </g>
     </g>
    </g>
    <g id="ytick_3">
     <g id="line2d_11">
      <g>
       <use style="stroke:#000000;stroke-width:0.8;" x="144" xlink:href="#md34dd505b2" y="215.722619"/>
      </g>
     </g>
     <g id="text_3">
      <!-- 20 -->
      <g transform="translate(124.275 219.521838)scale(0.1 -0.1)">
       <defs>
        <path d="M 19.1875 8.296875 
L 53.609375 8.296875 
L 53.609375 0 
L 7.328125 0 
L 7.328125 8.296875 
Q 12.9375 14.109375 22.625 23.890625 
Q 32.328125 33.6875 34.8125 36.53125 
Q 39.546875 41.84375 41.421875 45.53125 
Q 43.3125 49.21875 43.3125 52.78125 
Q 43.3125 58.59375 39.234375 62.25 
Q 35.15625 65.921875 28.609375 65.921875 
Q 23.96875 65.921875 18.8125 64.3125 
Q 13.671875 62.703125 7.8125 59.421875 
L 7.8125 69.390625 
Q 13.765625 71.78125 18.9375 73 
Q 24.125 74.21875 28.421875 74.21875 
Q 39.75 74.21875 46.484375 68.546875 
Q 53.21875 62.890625 53.21875 53.421875 
Q 53.21875 48.921875 51.53125 44.890625 
Q 49.859375 40.875 45.40625 35.40625 
Q 44.1875 33.984375 37.640625 27.21875 
Q 31.109375 20.453125 19.1875 8.296875 
z
" id="DejaVuSans-50"/>
       </defs>
       <use xlink:href="#DejaVuSans-50"/>
       <use x="63.623047" xlink:href="#DejaVuSans-48"/>
      </g>
     </g>
    </g>
    <g id="ytick_4">
     <g id="line2d_12">
      <g>
       <use style="stroke:#000000;stroke-width:0.8;" x="144" xlink:href="#md34dd505b2" y="187.709905"/>
      </g>
     </g>
     <g id="text_4">
      <!-- 30 -->
      <g transform="translate(124.275 191.509123)scale(0.1 -0.1)">
       <defs>
        <path d="M 40.578125 39.3125 
Q 47.65625 37.796875 51.625 33 
Q 55.609375 28.21875 55.609375 21.1875 
Q 55.609375 10.40625 48.1875 4.484375 
Q 40.765625 -1.421875 27.09375 -1.421875 
Q 22.515625 -1.421875 17.65625 -0.515625 
Q 12.796875 0.390625 7.625 2.203125 
L 7.625 11.71875 
Q 11.71875 9.328125 16.59375 8.109375 
Q 21.484375 6.890625 26.8125 6.890625 
Q 36.078125 6.890625 40.9375 10.546875 
Q 45.796875 14.203125 45.796875 21.1875 
Q 45.796875 27.640625 41.28125 31.265625 
Q 36.765625 34.90625 28.71875 34.90625 
L 20.21875 34.90625 
L 20.21875 43.015625 
L 29.109375 43.015625 
Q 36.375 43.015625 40.234375 45.921875 
Q 44.09375 48.828125 44.09375 54.296875 
Q 44.09375 59.90625 40.109375 62.90625 
Q 36.140625 65.921875 28.71875 65.921875 
Q 24.65625 65.921875 20.015625 65.03125 
Q 15.375 64.15625 9.8125 62.3125 
L 9.8125 71.09375 
Q 15.4375 72.65625 20.34375 73.4375 
Q 25.25 74.21875 29.59375 74.21875 
Q 40.828125 74.21875 47.359375 69.109375 
Q 53.90625 64.015625 53.90625 55.328125 
Q 53.90625 49.265625 50.4375 45.09375 
Q 46.96875 40.921875 40.578125 39.3125 
z
" id="DejaVuSans-51"/>
       </defs>
       <use xlink:href="#DejaVuSans-51"/>
       <use x="63.623047" xlink:href="#DejaVuSans-48"/>
      </g>
     </g>
    </g>
    <g id="ytick_5">
     <g id="line2d_13">
      <g>
       <use style="stroke:#000000;stroke-width:0.8;" x="144" xlink:href="#md34dd505b2" y="159.69719"/>
      </g>
     </g>
     <g id="text_5">
      <!-- 40 -->
      <g transform="translate(124.275 163.496409)scale(0.1 -0.1)">
       <defs>
        <path d="M 37.796875 64.3125 
L 12.890625 25.390625 
L 37.796875 25.390625 
z
M 35.203125 72.90625 
L 47.609375 72.90625 
L 47.609375 25.390625 
L 58.015625 25.390625 
L 58.015625 17.1875 
L 47.609375 17.1875 
L 47.609375 0 
L 37.796875 0 
L 37.796875 17.1875 
L 4.890625 17.1875 
L 4.890625 26.703125 
z
" id="DejaVuSans-52"/>
       </defs>
       <use xlink:href="#DejaVuSans-52"/>
       <use x="63.623047" xlink:href="#DejaVuSans-48"/>
      </g>
     </g>
    </g>
    <g id="ytick_6">
     <g id="line2d_14">
      <g>
       <use style="stroke:#000000;stroke-width:0.8;" x="144" xlink:href="#md34dd505b2" y="131.684476"/>
      </g>
     </g>
     <g id="text_6">
      <!-- 50 -->
      <g transform="translate(124.275 135.483694)scale(0.1 -0.1)">
       <defs>
        <path d="M 10.796875 72.90625 
L 49.515625 72.90625 
L 49.515625 64.59375 
L 19.828125 64.59375 
L 19.828125 46.734375 
Q 21.96875 47.46875 24.109375 47.828125 
Q 26.265625 48.1875 28.421875 48.1875 
Q 40.625 48.1875 47.75 41.5 
Q 54.890625 34.8125 54.890625 23.390625 
Q 54.890625 11.625 47.5625 5.09375 
Q 40.234375 -1.421875 26.90625 -1.421875 
Q 22.3125 -1.421875 17.546875 -0.640625 
Q 12.796875 0.140625 7.71875 1.703125 
L 7.71875 11.625 
Q 12.109375 9.234375 16.796875 8.0625 
Q 21.484375 6.890625 26.703125 6.890625 
Q 35.15625 6.890625 40.078125 11.328125 
Q 45.015625 15.765625 45.015625 23.390625 
Q 45.015625 31 40.078125 35.4375 
Q 35.15625 39.890625 26.703125 39.890625 
Q 22.75 39.890625 18.8125 39.015625 
Q 14.890625 38.140625 10.796875 36.28125 
z
" id="DejaVuSans-53"/>
       </defs>
       <use xlink:href="#DejaVuSans-53"/>
       <use x="63.623047" xlink:href="#DejaVuSans-48"/>
      </g>
     </g>
    </g>
    <g id="ytick_7">
     <g id="line2d_15">
      <g>
       <use style="stroke:#000000;stroke-width:0.8;" x="144" xlink:href="#md34dd505b2" y="103.671761"/>
      </g>
     </g>
     <g id="text_7">
      <!-- 60 -->
      <g transform="translate(124.275 107.47098)scale(0.1 -0.1)">
       <defs>
        <path d="M 33.015625 40.375 
Q 26.375 40.375 22.484375 35.828125 
Q 18.609375 31.296875 18.609375 23.390625 
Q 18.609375 15.53125 22.484375 10.953125 
Q 26.375 6.390625 33.015625 6.390625 
Q 39.65625 6.390625 43.53125 10.953125 
Q 47.40625 15.53125 47.40625 23.390625 
Q 47.40625 31.296875 43.53125 35.828125 
Q 39.65625 40.375 33.015625 40.375 
z
M 52.59375 71.296875 
L 52.59375 62.3125 
Q 48.875 64.0625 45.09375 64.984375 
Q 41.3125 65.921875 37.59375 65.921875 
Q 27.828125 65.921875 22.671875 59.328125 
Q 17.53125 52.734375 16.796875 39.40625 
Q 19.671875 43.65625 24.015625 45.921875 
Q 28.375 48.1875 33.59375 48.1875 
Q 44.578125 48.1875 50.953125 41.515625 
Q 57.328125 34.859375 57.328125 23.390625 
Q 57.328125 12.15625 50.6875 5.359375 
Q 44.046875 -1.421875 33.015625 -1.421875 
Q 20.359375 -1.421875 13.671875 8.265625 
Q 6.984375 17.96875 6.984375 36.375 
Q 6.984375 53.65625 15.1875 63.9375 
Q 23.390625 74.21875 37.203125 74.21875 
Q 40.921875 74.21875 44.703125 73.484375 
Q 48.484375 72.75 52.59375 71.296875 
z
" id="DejaVuSans-54"/>
       </defs>
       <use xlink:href="#DejaVuSans-54"/>
       <use x="63.623047" xlink:href="#DejaVuSans-48"/>
      </g>
     </g>
    </g>
    <g id="text_8">
     <!-- Anzahl -->
     <g transform="translate(118.195312 194.740611)rotate(-90)scale(0.1 -0.1)">
      <defs>
       <path d="M 34.1875 63.1875 
L 20.796875 26.90625 
L 47.609375 26.90625 
z
M 28.609375 72.90625 
L 39.796875 72.90625 
L 67.578125 0 
L 57.328125 0 
L 50.6875 18.703125 
L 17.828125 18.703125 
L 11.1875 0 
L 0.78125 0 
z
" id="DejaVuSans-65"/>
       <path d="M 54.890625 33.015625 
L 54.890625 0 
L 45.90625 0 
L 45.90625 32.71875 
Q 45.90625 40.484375 42.875 44.328125 
Q 39.84375 48.1875 33.796875 48.1875 
Q 26.515625 48.1875 22.3125 43.546875 
Q 18.109375 38.921875 18.109375 30.90625 
L 18.109375 0 
L 9.078125 0 
L 9.078125 54.6875 
L 18.109375 54.6875 
L 18.109375 46.1875 
Q 21.34375 51.125 25.703125 53.5625 
Q 30.078125 56 35.796875 56 
Q 45.21875 56 50.046875 50.171875 
Q 54.890625 44.34375 54.890625 33.015625 
z
" id="DejaVuSans-110"/>
       <path d="M 5.515625 54.6875 
L 48.1875 54.6875 
L 48.1875 46.484375 
L 14.40625 7.171875 
L 48.1875 7.171875 
L 48.1875 0 
L 4.296875 0 
L 4.296875 8.203125 
L 38.09375 47.515625 
L 5.515625 47.515625 
z
" id="DejaVuSans-122"/>
       <path d="M 34.28125 27.484375 
Q 23.390625 27.484375 19.1875 25 
Q 14.984375 22.515625 14.984375 16.5 
Q 14.984375 11.71875 18.140625 8.90625 
Q 21.296875 6.109375 26.703125 6.109375 
Q 34.1875 6.109375 38.703125 11.40625 
Q 43.21875 16.703125 43.21875 25.484375 
L 43.21875 27.484375 
z
M 52.203125 31.203125 
L 52.203125 0 
L 43.21875 0 
L 43.21875 8.296875 
Q 40.140625 3.328125 35.546875 0.953125 
Q 30.953125 -1.421875 24.3125 -1.421875 
Q 15.921875 -1.421875 10.953125 3.296875 
Q 6 8.015625 6 15.921875 
Q 6 25.140625 12.171875 29.828125 
Q 18.359375 34.515625 30.609375 34.515625 
L 43.21875 34.515625 
L 43.21875 35.40625 
Q 43.21875 41.609375 39.140625 45 
Q 35.0625 48.390625 27.6875 48.390625 
Q 23 48.390625 18.546875 47.265625 
Q 14.109375 46.140625 10.015625 43.890625 
L 10.015625 52.203125 
Q 14.9375 54.109375 19.578125 55.046875 
Q 24.21875 56 28.609375 56 
Q 40.484375 56 46.34375 49.84375 
Q 52.203125 43.703125 52.203125 31.203125 
z
" id="DejaVuSans-97"/>
       <path d="M 54.890625 33.015625 
L 54.890625 0 
L 45.90625 0 
L 45.90625 32.71875 
Q 45.90625 40.484375 42.875 44.328125 
Q 39.84375 48.1875 33.796875 48.1875 
Q 26.515625 48.1875 22.3125 43.546875 
Q 18.109375 38.921875 18.109375 30.90625 
L 18.109375 0 
L 9.078125 0 
L 9.078125 75.984375 
L 18.109375 75.984375 
L 18.109375 46.1875 
Q 21.34375 51.125 25.703125 53.5625 
Q 30.078125 56 35.796875 56 
Q 45.21875 56 50.046875 50.171875 
Q 54.890625 44.34375 54.890625 33.015625 
z
" id="DejaVuSans-104"/>
       <path d="M 9.421875 75.984375 
L 18.40625 75.984375 
L 18.40625 0 
L 9.421875 0 
z
" id="DejaVuSans-108"/>
      </defs>
      <use xlink:href="#DejaVuSans-65"/>
      <use x="68.408203" xlink:href="#DejaVuSans-110"/>
      <use x="131.787109" xlink:href="#DejaVuSans-122"/>
      <use x="184.277344" xlink:href="#DejaVuSans-97"/>
      <use x="245.556641" xlink:href="#DejaVuSans-104"/>
      <use x="308.935547" xlink:href="#DejaVuSans-108"/>
     </g>
    </g>
   </g>
   <g id="line2d_16">
    <path clip-path="url(#p9c58ba64b9)" d="M 187.679667 268.946777 
L 218.658154 266.145505 
L 218.658154 263.344234 
L 218.658154 260.542962 
L 265.125885 257.741691 
L 296.104372 254.94042 
L 350.316724 252.139148 
L 420.018321 249.337877 
L 420.018321 246.536605 
L 420.018321 243.735334 
L 458.74143 240.934062 
L 466.486051 238.132791 
L 474.230673 235.331519 
L 474.230673 232.530248 
L 489.719917 229.728976 
L 497.464539 224.126434 
L 520.698404 221.325162 
L 520.698404 218.523891 
L 536.187647 215.722619 
L 543.932269 212.921348 
L 559.421513 210.120076 
L 574.910756 204.517533 
L 574.910756 201.716262 
L 613.633865 198.91499 
L 621.378487 196.113719 
L 621.378487 193.312448 
L 629.123109 190.511176 
L 629.123109 184.908633 
L 660.101596 182.107362 
L 683.335461 179.30609 
L 683.335461 173.703547 
L 698.824705 170.902276 
L 714.313949 168.101004 
L 722.05857 165.299733 
L 737.547814 159.69719 
L 753.037058 156.895919 
L 791.760167 154.094647 
L 807.24941 151.293376 
L 838.227897 148.492104 
L 838.227897 145.690833 
L 869.206384 142.889561 
L 869.206384 140.08829 
L 876.951006 137.287018 
L 884.695628 131.684476 
L 892.44025 126.081933 
L 892.44025 123.280661 
L 900.184872 120.47939 
L 915.674115 117.678118 
L 923.418737 114.876847 
L 938.907981 112.075575 
L 938.907981 109.274304 
L 954.397224 106.473032 
L 954.397224 100.87049 
L 969.886468 98.069218 
L 985.375711 92.466675 
L 993.120333 89.665404 
L 993.120333 86.864132 
" style="fill:none;stroke:#1f77b4;stroke-linecap:square;stroke-width:1.5;"/>
   </g>
   <g id="patch_3">
    <path d="M 144 278.050909 
L 144 77.76 
" style="fill:none;stroke:#000000;stroke-linecap:square;stroke-linejoin:miter;stroke-width:0.8;"/>
   </g>
   <g id="patch_4">
    <path d="M 1036.8 278.050909 
L 1036.8 77.76 
" style="fill:none;stroke:#000000;stroke-linecap:square;stroke-linejoin:miter;stroke-width:0.8;"/>
   </g>
   <g id="patch_5">
    <path d="M 144 278.050909 
L 1036.8 278.050909 
" style="fill:none;stroke:#000000;stroke-linecap:square;stroke-linejoin:miter;stroke-width:0.8;"/>
   </g>
   <g id="patch_6">
    <path d="M 144 77.76 
L 1036.8 77.76 
" style="fill:none;stroke:#000000;stroke-linecap:square;stroke-linejoin:miter;stroke-width:0.8;"/>
   </g>
   <g id="text_9">
    <!-- kumulativ -->
    <g transform="translate(560.749687 71.76)scale(0.12 -0.12)">
     <defs>
      <path d="M 9.078125 75.984375 
L 18.109375 75.984375 
L 18.109375 31.109375 
L 44.921875 54.6875 
L 56.390625 54.6875 
L 27.390625 29.109375 
L 57.625 0 
L 45.90625 0 
L 18.109375 26.703125 
L 18.109375 0 
L 9.078125 0 
z
" id="DejaVuSans-107"/>
      <path d="M 8.5 21.578125 
L 8.5 54.6875 
L 17.484375 54.6875 
L 17.484375 21.921875 
Q 17.484375 14.15625 20.5 10.265625 
Q 23.53125 6.390625 29.59375 6.390625 
Q 36.859375 6.390625 41.078125 11.03125 
Q 45.3125 15.671875 45.3125 23.6875 
L 45.3125 54.6875 
L 54.296875 54.6875 
L 54.296875 0 
L 45.3125 0 
L 45.3125 8.40625 
Q 42.046875 3.421875 37.71875 1 
Q 33.40625 -1.421875 27.6875 -1.421875 
Q 18.265625 -1.421875 13.375 4.4375 
Q 8.5 10.296875 8.5 21.578125 
z
M 31.109375 56 
z
" id="DejaVuSans-117"/>
      <path d="M 52 44.1875 
Q 55.375 50.25 60.0625 53.125 
Q 64.75 56 71.09375 56 
Q 79.640625 56 84.28125 50.015625 
Q 88.921875 44.046875 88.921875 33.015625 
L 88.921875 0 
L 79.890625 0 
L 79.890625 32.71875 
Q 79.890625 40.578125 77.09375 44.375 
Q 74.3125 48.1875 68.609375 48.1875 
Q 61.625 48.1875 57.5625 43.546875 
Q 53.515625 38.921875 53.515625 30.90625 
L 53.515625 0 
L 44.484375 0 
L 44.484375 32.71875 
Q 44.484375 40.625 41.703125 44.40625 
Q 38.921875 48.1875 33.109375 48.1875 
Q 26.21875 48.1875 22.15625 43.53125 
Q 18.109375 38.875 18.109375 30.90625 
L 18.109375 0 
L 9.078125 0 
L 9.078125 54.6875 
L 18.109375 54.6875 
L 18.109375 46.1875 
Q 21.1875 51.21875 25.484375 53.609375 
Q 29.78125 56 35.6875 56 
Q 41.65625 56 45.828125 52.96875 
Q 50 49.953125 52 44.1875 
z
" id="DejaVuSans-109"/>
      <path d="M 18.3125 70.21875 
L 18.3125 54.6875 
L 36.8125 54.6875 
L 36.8125 47.703125 
L 18.3125 47.703125 
L 18.3125 18.015625 
Q 18.3125 11.328125 20.140625 9.421875 
Q 21.96875 7.515625 27.59375 7.515625 
L 36.8125 7.515625 
L 36.8125 0 
L 27.59375 0 
Q 17.1875 0 13.234375 3.875 
Q 9.28125 7.765625 9.28125 18.015625 
L 9.28125 47.703125 
L 2.6875 47.703125 
L 2.6875 54.6875 
L 9.28125 54.6875 
L 9.28125 70.21875 
z
" id="DejaVuSans-116"/>
      <path d="M 9.421875 54.6875 
L 18.40625 54.6875 
L 18.40625 0 
L 9.421875 0 
z
M 9.421875 75.984375 
L 18.40625 75.984375 
L 18.40625 64.59375 
L 9.421875 64.59375 
z
" id="DejaVuSans-105"/>
      <path d="M 2.984375 54.6875 
L 12.5 54.6875 
L 29.59375 8.796875 
L 46.6875 54.6875 
L 56.203125 54.6875 
L 35.6875 0 
L 23.484375 0 
z
" id="DejaVuSans-118"/>
     </defs>
     <use xlink:href="#DejaVuSans-107"/>
     <use x="54.785156" xlink:href="#DejaVuSans-117"/>
     <use x="118.164062" xlink:href="#DejaVuSans-109"/>
     <use x="215.576172" xlink:href="#DejaVuSans-117"/>
     <use x="278.955078" xlink:href="#DejaVuSans-108"/>
     <use x="306.738281" xlink:href="#DejaVuSans-97"/>
     <use x="368.017578" xlink:href="#DejaVuSans-116"/>
     <use x="407.226562" xlink:href="#DejaVuSans-105"/>
     <use x="435.009766" xlink:href="#DejaVuSans-118"/>
    </g>
   </g>
  </g>
  <g id="axes_2">
   <g id="patch_7">
    <path d="M 144 518.4 
L 1036.8 518.4 
L 1036.8 318.109091 
L 144 318.109091 
z
" style="fill:#ffffff;"/>
   </g>
   <g id="patch_8">
    <path clip-path="url(#p613b0161d5)" d="M 215.560305 518.4 
L 221.756003 518.4 
L 221.756003 423.023377 
L 215.560305 423.023377 
z
" style="fill:#1f77b4;"/>
   </g>
   <g id="patch_9">
    <path clip-path="url(#p613b0161d5)" d="M 416.920472 518.4 
L 423.116169 518.4 
L 423.116169 423.023377 
L 416.920472 423.023377 
z
" style="fill:#1f77b4;"/>
   </g>
   <g id="patch_10">
    <path clip-path="url(#p613b0161d5)" d="M 486.622068 518.4 
L 492.817765 518.4 
L 492.817765 423.023377 
L 486.622068 423.023377 
z
" style="fill:#1f77b4;"/>
   </g>
   <g id="patch_11">
    <path clip-path="url(#p613b0161d5)" d="M 618.280638 518.4 
L 624.476336 518.4 
L 624.476336 423.023377 
L 618.280638 423.023377 
z
" style="fill:#1f77b4;"/>
   </g>
   <g id="patch_12">
    <path clip-path="url(#p613b0161d5)" d="M 626.02526 518.4 
L 632.220958 518.4 
L 632.220958 423.023377 
L 626.02526 423.023377 
z
" style="fill:#1f77b4;"/>
   </g>
   <g id="patch_13">
    <path clip-path="url(#p613b0161d5)" d="M 695.726856 518.4 
L 701.922554 518.4 
L 701.922554 423.023377 
L 695.726856 423.023377 
z
" style="fill:#1f77b4;"/>
   </g>
   <g id="patch_14">
    <path clip-path="url(#p613b0161d5)" d="M 734.449965 518.4 
L 740.645663 518.4 
L 740.645663 327.646753 
L 734.449965 327.646753 
z
" style="fill:#1f77b4;"/>
   </g>
   <g id="patch_15">
    <path clip-path="url(#p613b0161d5)" d="M 749.939209 518.4 
L 756.134906 518.4 
L 756.134906 423.023377 
L 749.939209 423.023377 
z
" style="fill:#1f77b4;"/>
   </g>
   <g id="patch_16">
    <path clip-path="url(#p613b0161d5)" d="M 866.108536 518.4 
L 872.304233 518.4 
L 872.304233 423.023377 
L 866.108536 423.023377 
z
" style="fill:#1f77b4;"/>
   </g>
   <g id="patch_17">
    <path clip-path="url(#p613b0161d5)" d="M 912.576266 518.4 
L 918.771964 518.4 
L 918.771964 423.023377 
L 912.576266 423.023377 
z
" style="fill:#1f77b4;"/>
   </g>
   <g id="patch_18">
    <path clip-path="url(#p613b0161d5)" d="M 920.320888 518.4 
L 926.516586 518.4 
L 926.516586 423.023377 
L 920.320888 423.023377 
z
" style="fill:#1f77b4;"/>
   </g>
   <g id="patch_19">
    <path clip-path="url(#p613b0161d5)" d="M 935.810132 518.4 
L 942.005829 518.4 
L 942.005829 423.023377 
L 935.810132 423.023377 
z
" style="fill:#1f77b4;"/>
   </g>
   <g id="patch_20">
    <path clip-path="url(#p613b0161d5)" d="M 951.299375 518.4 
L 957.495073 518.4 
L 957.495073 423.023377 
L 951.299375 423.023377 
z
" style="fill:#1f77b4;"/>
   </g>
   <g id="patch_21">
    <path clip-path="url(#p613b0161d5)" d="M 990.022484 518.4 
L 996.218182 518.4 
L 996.218182 423.023377 
L 990.022484 423.023377 
z
" style="fill:#1f77b4;"/>
   </g>
   <g id="patch_22">
    <path clip-path="url(#p613b0161d5)" d="M 293.006523 518.4 
L 299.202221 518.4 
L 299.202221 423.023377 
L 293.006523 423.023377 
z
" style="fill:#ff7f0e;"/>
   </g>
   <g id="patch_23">
    <path clip-path="url(#p613b0161d5)" d="M 416.920472 518.4 
L 423.116169 518.4 
L 423.116169 423.023377 
L 416.920472 423.023377 
z
" style="fill:#ff7f0e;"/>
   </g>
   <g id="patch_24">
    <path clip-path="url(#p613b0161d5)" d="M 455.643581 518.4 
L 461.839278 518.4 
L 461.839278 423.023377 
L 455.643581 423.023377 
z
" style="fill:#ff7f0e;"/>
   </g>
   <g id="patch_25">
    <path clip-path="url(#p613b0161d5)" d="M 471.132824 518.4 
L 477.328522 518.4 
L 477.328522 423.023377 
L 471.132824 423.023377 
z
" style="fill:#ff7f0e;"/>
   </g>
   <g id="patch_26">
    <path clip-path="url(#p613b0161d5)" d="M 571.812908 518.4 
L 578.008605 518.4 
L 578.008605 423.023377 
L 571.812908 423.023377 
z
" style="fill:#ff7f0e;"/>
   </g>
   <g id="patch_27">
    <path clip-path="url(#p613b0161d5)" d="M 610.536017 518.4 
L 616.731714 518.4 
L 616.731714 423.023377 
L 610.536017 423.023377 
z
" style="fill:#ff7f0e;"/>
   </g>
   <g id="patch_28">
    <path clip-path="url(#p613b0161d5)" d="M 626.02526 518.4 
L 632.220958 518.4 
L 632.220958 327.646753 
L 626.02526 327.646753 
z
" style="fill:#ff7f0e;"/>
   </g>
   <g id="patch_29">
    <path clip-path="url(#p613b0161d5)" d="M 680.237613 518.4 
L 686.43331 518.4 
L 686.43331 327.646753 
L 680.237613 327.646753 
z
" style="fill:#ff7f0e;"/>
   </g>
   <g id="patch_30">
    <path clip-path="url(#p613b0161d5)" d="M 889.342401 518.4 
L 895.538099 518.4 
L 895.538099 423.023377 
L 889.342401 423.023377 
z
" style="fill:#ff7f0e;"/>
   </g>
   <g id="patch_31">
    <path clip-path="url(#p613b0161d5)" d="M 897.087023 518.4 
L 903.28272 518.4 
L 903.28272 423.023377 
L 897.087023 423.023377 
z
" style="fill:#ff7f0e;"/>
   </g>
   <g id="patch_32">
    <path clip-path="url(#p613b0161d5)" d="M 951.299375 518.4 
L 957.495073 518.4 
L 957.495073 327.646753 
L 951.299375 327.646753 
z
" style="fill:#ff7f0e;"/>
   </g>
   <g id="patch_33">
    <path clip-path="url(#p613b0161d5)" d="M 184.581818 518.4 
L 190.777516 518.4 
L 190.777516 423.023377 
L 184.581818 423.023377 
z
" style="fill:#2ca02c;"/>
   </g>
   <g id="patch_34">
    <path clip-path="url(#p613b0161d5)" d="M 262.028036 518.4 
L 268.223734 518.4 
L 268.223734 423.023377 
L 262.028036 423.023377 
z
" style="fill:#2ca02c;"/>
   </g>
   <g id="patch_35">
    <path clip-path="url(#p613b0161d5)" d="M 347.218876 518.4 
L 353.414573 518.4 
L 353.414573 423.023377 
L 347.218876 423.023377 
z
" style="fill:#2ca02c;"/>
   </g>
   <g id="patch_36">
    <path clip-path="url(#p613b0161d5)" d="M 463.388203 518.4 
L 469.5839 518.4 
L 469.5839 423.023377 
L 463.388203 423.023377 
z
" style="fill:#2ca02c;"/>
   </g>
   <g id="patch_37">
    <path clip-path="url(#p613b0161d5)" d="M 517.600555 518.4 
L 523.796253 518.4 
L 523.796253 423.023377 
L 517.600555 423.023377 
z
" style="fill:#2ca02c;"/>
   </g>
   <g id="patch_38">
    <path clip-path="url(#p613b0161d5)" d="M 657.003747 518.4 
L 663.199445 518.4 
L 663.199445 423.023377 
L 657.003747 423.023377 
z
" style="fill:#2ca02c;"/>
   </g>
   <g id="patch_39">
    <path clip-path="url(#p613b0161d5)" d="M 215.560305 518.4 
L 221.756003 518.4 
L 221.756003 423.023377 
L 215.560305 423.023377 
z
" style="fill:#d62728;"/>
   </g>
   <g id="patch_40">
    <path clip-path="url(#p613b0161d5)" d="M 215.560305 518.4 
L 221.756003 518.4 
L 221.756003 423.023377 
L 215.560305 423.023377 
z
" style="fill:#d62728;"/>
   </g>
   <g id="patch_41">
    <path clip-path="url(#p613b0161d5)" d="M 416.920472 518.4 
L 423.116169 518.4 
L 423.116169 423.023377 
L 416.920472 423.023377 
z
" style="fill:#d62728;"/>
   </g>
   <g id="patch_42">
    <path clip-path="url(#p613b0161d5)" d="M 471.132824 518.4 
L 477.328522 518.4 
L 477.328522 423.023377 
L 471.132824 423.023377 
z
" style="fill:#d62728;"/>
   </g>
   <g id="patch_43">
    <path clip-path="url(#p613b0161d5)" d="M 494.36669 518.4 
L 500.562387 518.4 
L 500.562387 327.646753 
L 494.36669 327.646753 
z
" style="fill:#d62728;"/>
   </g>
   <g id="patch_44">
    <path clip-path="url(#p613b0161d5)" d="M 517.600555 518.4 
L 523.796253 518.4 
L 523.796253 423.023377 
L 517.600555 423.023377 
z
" style="fill:#d62728;"/>
   </g>
   <g id="patch_45">
    <path clip-path="url(#p613b0161d5)" d="M 533.089799 518.4 
L 539.285496 518.4 
L 539.285496 423.023377 
L 533.089799 423.023377 
z
" style="fill:#d62728;"/>
   </g>
   <g id="patch_46">
    <path clip-path="url(#p613b0161d5)" d="M 540.834421 518.4 
L 547.030118 518.4 
L 547.030118 423.023377 
L 540.834421 423.023377 
z
" style="fill:#d62728;"/>
   </g>
   <g id="patch_47">
    <path clip-path="url(#p613b0161d5)" d="M 556.323664 518.4 
L 562.519362 518.4 
L 562.519362 423.023377 
L 556.323664 423.023377 
z
" style="fill:#d62728;"/>
   </g>
   <g id="patch_48">
    <path clip-path="url(#p613b0161d5)" d="M 571.812908 518.4 
L 578.008605 518.4 
L 578.008605 327.646753 
L 571.812908 327.646753 
z
" style="fill:#d62728;"/>
   </g>
   <g id="patch_49">
    <path clip-path="url(#p613b0161d5)" d="M 618.280638 518.4 
L 624.476336 518.4 
L 624.476336 423.023377 
L 618.280638 423.023377 
z
" style="fill:#d62728;"/>
   </g>
   <g id="patch_50">
    <path clip-path="url(#p613b0161d5)" d="M 680.237613 518.4 
L 686.43331 518.4 
L 686.43331 423.023377 
L 680.237613 423.023377 
z
" style="fill:#d62728;"/>
   </g>
   <g id="patch_51">
    <path clip-path="url(#p613b0161d5)" d="M 711.2161 518.4 
L 717.411797 518.4 
L 717.411797 423.023377 
L 711.2161 423.023377 
z
" style="fill:#d62728;"/>
   </g>
   <g id="patch_52">
    <path clip-path="url(#p613b0161d5)" d="M 718.960722 518.4 
L 725.156419 518.4 
L 725.156419 423.023377 
L 718.960722 423.023377 
z
" style="fill:#d62728;"/>
   </g>
   <g id="patch_53">
    <path clip-path="url(#p613b0161d5)" d="M 788.662318 518.4 
L 794.858015 518.4 
L 794.858015 423.023377 
L 788.662318 423.023377 
z
" style="fill:#d62728;"/>
   </g>
   <g id="patch_54">
    <path clip-path="url(#p613b0161d5)" d="M 804.151561 518.4 
L 810.347259 518.4 
L 810.347259 423.023377 
L 804.151561 423.023377 
z
" style="fill:#d62728;"/>
   </g>
   <g id="patch_55">
    <path clip-path="url(#p613b0161d5)" d="M 835.130049 518.4 
L 841.325746 518.4 
L 841.325746 423.023377 
L 835.130049 423.023377 
z
" style="fill:#d62728;"/>
   </g>
   <g id="patch_56">
    <path clip-path="url(#p613b0161d5)" d="M 835.130049 518.4 
L 841.325746 518.4 
L 841.325746 423.023377 
L 835.130049 423.023377 
z
" style="fill:#d62728;"/>
   </g>
   <g id="patch_57">
    <path clip-path="url(#p613b0161d5)" d="M 866.108536 518.4 
L 872.304233 518.4 
L 872.304233 423.023377 
L 866.108536 423.023377 
z
" style="fill:#d62728;"/>
   </g>
   <g id="patch_58">
    <path clip-path="url(#p613b0161d5)" d="M 873.853158 518.4 
L 880.048855 518.4 
L 880.048855 423.023377 
L 873.853158 423.023377 
z
" style="fill:#d62728;"/>
   </g>
   <g id="patch_59">
    <path clip-path="url(#p613b0161d5)" d="M 881.597779 518.4 
L 887.793477 518.4 
L 887.793477 327.646753 
L 881.597779 327.646753 
z
" style="fill:#d62728;"/>
   </g>
   <g id="patch_60">
    <path clip-path="url(#p613b0161d5)" d="M 889.342401 518.4 
L 895.538099 518.4 
L 895.538099 327.646753 
L 889.342401 327.646753 
z
" style="fill:#d62728;"/>
   </g>
   <g id="patch_61">
    <path clip-path="url(#p613b0161d5)" d="M 935.810132 518.4 
L 942.005829 518.4 
L 942.005829 423.023377 
L 935.810132 423.023377 
z
" style="fill:#d62728;"/>
   </g>
   <g id="patch_62">
    <path clip-path="url(#p613b0161d5)" d="M 966.788619 518.4 
L 972.984316 518.4 
L 972.984316 423.023377 
L 966.788619 423.023377 
z
" style="fill:#d62728;"/>
   </g>
   <g id="patch_63">
    <path clip-path="url(#p613b0161d5)" d="M 982.277863 518.4 
L 988.47356 518.4 
L 988.47356 327.646753 
L 982.277863 327.646753 
z
" style="fill:#d62728;"/>
   </g>
   <g id="patch_64">
    <path clip-path="url(#p613b0161d5)" d="M 990.022484 518.4 
L 996.218182 518.4 
L 996.218182 423.023377 
L 990.022484 423.023377 
z
" style="fill:#d62728;"/>
   </g>
   <g id="matplotlib.axis_3">
    <g id="xtick_9">
     <g id="line2d_17">
      <g>
       <use style="stroke:#000000;stroke-width:0.8;" x="156.70118" xlink:href="#mabd0de80b3" y="518.4"/>
      </g>
     </g>
     <g id="text_10">
      <!-- 2021-02-01 -->
      <g transform="translate(105.331728 561.038252)rotate(-30)scale(0.1 -0.1)">
       <defs>
        <path d="M 4.890625 31.390625 
L 31.203125 31.390625 
L 31.203125 23.390625 
L 4.890625 23.390625 
z
" id="DejaVuSans-45"/>
       </defs>
       <use xlink:href="#DejaVuSans-50"/>
       <use x="63.623047" xlink:href="#DejaVuSans-48"/>
       <use x="127.246094" xlink:href="#DejaVuSans-50"/>
       <use x="190.869141" xlink:href="#DejaVuSans-49"/>
       <use x="254.492188" xlink:href="#DejaVuSans-45"/>
       <use x="290.576172" xlink:href="#DejaVuSans-48"/>
       <use x="354.199219" xlink:href="#DejaVuSans-50"/>
       <use x="417.822266" xlink:href="#DejaVuSans-45"/>
       <use x="453.90625" xlink:href="#DejaVuSans-48"/>
       <use x="517.529297" xlink:href="#DejaVuSans-49"/>
      </g>
     </g>
    </g>
    <g id="xtick_10">
     <g id="line2d_18">
      <g>
       <use style="stroke:#000000;stroke-width:0.8;" x="265.125885" xlink:href="#mabd0de80b3" y="518.4"/>
      </g>
     </g>
     <g id="text_11">
      <!-- 2021-02-15 -->
      <g transform="translate(213.756433 561.038252)rotate(-30)scale(0.1 -0.1)">
       <use xlink:href="#DejaVuSans-50"/>
       <use x="63.623047" xlink:href="#DejaVuSans-48"/>
       <use x="127.246094" xlink:href="#DejaVuSans-50"/>
       <use x="190.869141" xlink:href="#DejaVuSans-49"/>
       <use x="254.492188" xlink:href="#DejaVuSans-45"/>
       <use x="290.576172" xlink:href="#DejaVuSans-48"/>
       <use x="354.199219" xlink:href="#DejaVuSans-50"/>
       <use x="417.822266" xlink:href="#DejaVuSans-45"/>
       <use x="453.90625" xlink:href="#DejaVuSans-49"/>
       <use x="517.529297" xlink:href="#DejaVuSans-53"/>
      </g>
     </g>
    </g>
    <g id="xtick_11">
     <g id="line2d_19">
      <g>
       <use style="stroke:#000000;stroke-width:0.8;" x="373.55059" xlink:href="#mabd0de80b3" y="518.4"/>
      </g>
     </g>
     <g id="text_12">
      <!-- 2021-03-01 -->
      <g transform="translate(322.181139 561.038252)rotate(-30)scale(0.1 -0.1)">
       <use xlink:href="#DejaVuSans-50"/>
       <use x="63.623047" xlink:href="#DejaVuSans-48"/>
       <use x="127.246094" xlink:href="#DejaVuSans-50"/>
       <use x="190.869141" xlink:href="#DejaVuSans-49"/>
       <use x="254.492188" xlink:href="#DejaVuSans-45"/>
       <use x="290.576172" xlink:href="#DejaVuSans-48"/>
       <use x="354.199219" xlink:href="#DejaVuSans-51"/>
       <use x="417.822266" xlink:href="#DejaVuSans-45"/>
       <use x="453.90625" xlink:href="#DejaVuSans-48"/>
       <use x="517.529297" xlink:href="#DejaVuSans-49"/>
      </g>
     </g>
    </g>
    <g id="xtick_12">
     <g id="line2d_20">
      <g>
       <use style="stroke:#000000;stroke-width:0.8;" x="481.975295" xlink:href="#mabd0de80b3" y="518.4"/>
      </g>
     </g>
     <g id="text_13">
      <!-- 2021-03-15 -->
      <g transform="translate(430.605844 561.038252)rotate(-30)scale(0.1 -0.1)">
       <use xlink:href="#DejaVuSans-50"/>
       <use x="63.623047" xlink:href="#DejaVuSans-48"/>
       <use x="127.246094" xlink:href="#DejaVuSans-50"/>
       <use x="190.869141" xlink:href="#DejaVuSans-49"/>
       <use x="254.492188" xlink:href="#DejaVuSans-45"/>
       <use x="290.576172" xlink:href="#DejaVuSans-48"/>
       <use x="354.199219" xlink:href="#DejaVuSans-51"/>
       <use x="417.822266" xlink:href="#DejaVuSans-45"/>
       <use x="453.90625" xlink:href="#DejaVuSans-49"/>
       <use x="517.529297" xlink:href="#DejaVuSans-53"/>
      </g>
     </g>
    </g>
    <g id="xtick_13">
     <g id="line2d_21">
      <g>
       <use style="stroke:#000000;stroke-width:0.8;" x="613.633865" xlink:href="#mabd0de80b3" y="518.4"/>
      </g>
     </g>
     <g id="text_14">
      <!-- 2021-04-01 -->
      <g transform="translate(562.264414 561.038252)rotate(-30)scale(0.1 -0.1)">
       <use xlink:href="#DejaVuSans-50"/>
       <use x="63.623047" xlink:href="#DejaVuSans-48"/>
       <use x="127.246094" xlink:href="#DejaVuSans-50"/>
       <use x="190.869141" xlink:href="#DejaVuSans-49"/>
       <use x="254.492188" xlink:href="#DejaVuSans-45"/>
       <use x="290.576172" xlink:href="#DejaVuSans-48"/>
       <use x="354.199219" xlink:href="#DejaVuSans-52"/>
       <use x="417.822266" xlink:href="#DejaVuSans-45"/>
       <use x="453.90625" xlink:href="#DejaVuSans-48"/>
       <use x="517.529297" xlink:href="#DejaVuSans-49"/>
      </g>
     </g>
    </g>
    <g id="xtick_14">
     <g id="line2d_22">
      <g>
       <use style="stroke:#000000;stroke-width:0.8;" x="722.05857" xlink:href="#mabd0de80b3" y="518.4"/>
      </g>
     </g>
     <g id="text_15">
      <!-- 2021-04-15 -->
      <g transform="translate(670.689119 561.038252)rotate(-30)scale(0.1 -0.1)">
       <use xlink:href="#DejaVuSans-50"/>
       <use x="63.623047" xlink:href="#DejaVuSans-48"/>
       <use x="127.246094" xlink:href="#DejaVuSans-50"/>
       <use x="190.869141" xlink:href="#DejaVuSans-49"/>
       <use x="254.492188" xlink:href="#DejaVuSans-45"/>
       <use x="290.576172" xlink:href="#DejaVuSans-48"/>
       <use x="354.199219" xlink:href="#DejaVuSans-52"/>
       <use x="417.822266" xlink:href="#DejaVuSans-45"/>
       <use x="453.90625" xlink:href="#DejaVuSans-49"/>
       <use x="517.529297" xlink:href="#DejaVuSans-53"/>
      </g>
     </g>
    </g>
    <g id="xtick_15">
     <g id="line2d_23">
      <g>
       <use style="stroke:#000000;stroke-width:0.8;" x="845.972519" xlink:href="#mabd0de80b3" y="518.4"/>
      </g>
     </g>
     <g id="text_16">
      <!-- 2021-05-01 -->
      <g transform="translate(794.603068 561.038252)rotate(-30)scale(0.1 -0.1)">
       <use xlink:href="#DejaVuSans-50"/>
       <use x="63.623047" xlink:href="#DejaVuSans-48"/>
       <use x="127.246094" xlink:href="#DejaVuSans-50"/>
       <use x="190.869141" xlink:href="#DejaVuSans-49"/>
       <use x="254.492188" xlink:href="#DejaVuSans-45"/>
       <use x="290.576172" xlink:href="#DejaVuSans-48"/>
       <use x="354.199219" xlink:href="#DejaVuSans-53"/>
       <use x="417.822266" xlink:href="#DejaVuSans-45"/>
       <use x="453.90625" xlink:href="#DejaVuSans-48"/>
       <use x="517.529297" xlink:href="#DejaVuSans-49"/>
      </g>
     </g>
    </g>
    <g id="xtick_16">
     <g id="line2d_24">
      <g>
       <use style="stroke:#000000;stroke-width:0.8;" x="954.397224" xlink:href="#mabd0de80b3" y="518.4"/>
      </g>
     </g>
     <g id="text_17">
      <!-- 2021-05-15 -->
      <g transform="translate(903.027773 561.038252)rotate(-30)scale(0.1 -0.1)">
       <use xlink:href="#DejaVuSans-50"/>
       <use x="63.623047" xlink:href="#DejaVuSans-48"/>
       <use x="127.246094" xlink:href="#DejaVuSans-50"/>
       <use x="190.869141" xlink:href="#DejaVuSans-49"/>
       <use x="254.492188" xlink:href="#DejaVuSans-45"/>
       <use x="290.576172" xlink:href="#DejaVuSans-48"/>
       <use x="354.199219" xlink:href="#DejaVuSans-53"/>
       <use x="417.822266" xlink:href="#DejaVuSans-45"/>
       <use x="453.90625" xlink:href="#DejaVuSans-49"/>
       <use x="517.529297" xlink:href="#DejaVuSans-53"/>
      </g>
     </g>
    </g>
   </g>
   <g id="matplotlib.axis_4">
    <g id="ytick_8">
     <g id="line2d_25">
      <g>
       <use style="stroke:#000000;stroke-width:0.8;" x="144" xlink:href="#md34dd505b2" y="518.4"/>
      </g>
     </g>
     <g id="text_18">
      <!-- 0.00 -->
      <g transform="translate(114.734375 522.199219)scale(0.1 -0.1)">
       <defs>
        <path d="M 10.6875 12.40625 
L 21 12.40625 
L 21 0 
L 10.6875 0 
z
" id="DejaVuSans-46"/>
       </defs>
       <use xlink:href="#DejaVuSans-48"/>
       <use x="63.623047" xlink:href="#DejaVuSans-46"/>
       <use x="95.410156" xlink:href="#DejaVuSans-48"/>
       <use x="159.033203" xlink:href="#DejaVuSans-48"/>
      </g>
     </g>
    </g>
    <g id="ytick_9">
     <g id="line2d_26">
      <g>
       <use style="stroke:#000000;stroke-width:0.8;" x="144" xlink:href="#md34dd505b2" y="494.555844"/>
      </g>
     </g>
     <g id="text_19">
      <!-- 0.25 -->
      <g transform="translate(114.734375 498.355063)scale(0.1 -0.1)">
       <use xlink:href="#DejaVuSans-48"/>
       <use x="63.623047" xlink:href="#DejaVuSans-46"/>
       <use x="95.410156" xlink:href="#DejaVuSans-50"/>
       <use x="159.033203" xlink:href="#DejaVuSans-53"/>
      </g>
     </g>
    </g>
    <g id="ytick_10">
     <g id="line2d_27">
      <g>
       <use style="stroke:#000000;stroke-width:0.8;" x="144" xlink:href="#md34dd505b2" y="470.711688"/>
      </g>
     </g>
     <g id="text_20">
      <!-- 0.50 -->
      <g transform="translate(114.734375 474.510907)scale(0.1 -0.1)">
       <use xlink:href="#DejaVuSans-48"/>
       <use x="63.623047" xlink:href="#DejaVuSans-46"/>
       <use x="95.410156" xlink:href="#DejaVuSans-53"/>
       <use x="159.033203" xlink:href="#DejaVuSans-48"/>
      </g>
     </g>
    </g>
    <g id="ytick_11">
     <g id="line2d_28">
      <g>
       <use style="stroke:#000000;stroke-width:0.8;" x="144" xlink:href="#md34dd505b2" y="446.867532"/>
      </g>
     </g>
     <g id="text_21">
      <!-- 0.75 -->
      <g transform="translate(114.734375 450.666751)scale(0.1 -0.1)">
       <defs>
        <path d="M 8.203125 72.90625 
L 55.078125 72.90625 
L 55.078125 68.703125 
L 28.609375 0 
L 18.3125 0 
L 43.21875 64.59375 
L 8.203125 64.59375 
z
" id="DejaVuSans-55"/>
       </defs>
       <use xlink:href="#DejaVuSans-48"/>
       <use x="63.623047" xlink:href="#DejaVuSans-46"/>
       <use x="95.410156" xlink:href="#DejaVuSans-55"/>
       <use x="159.033203" xlink:href="#DejaVuSans-53"/>
      </g>
     </g>
    </g>
    <g id="ytick_12">
     <g id="line2d_29">
      <g>
       <use style="stroke:#000000;stroke-width:0.8;" x="144" xlink:href="#md34dd505b2" y="423.023377"/>
      </g>
     </g>
     <g id="text_22">
      <!-- 1.00 -->
      <g transform="translate(114.734375 426.822595)scale(0.1 -0.1)">
       <use xlink:href="#DejaVuSans-49"/>
       <use x="63.623047" xlink:href="#DejaVuSans-46"/>
       <use x="95.410156" xlink:href="#DejaVuSans-48"/>
       <use x="159.033203" xlink:href="#DejaVuSans-48"/>
      </g>
     </g>
    </g>
    <g id="ytick_13">
     <g id="line2d_30">
      <g>
       <use style="stroke:#000000;stroke-width:0.8;" x="144" xlink:href="#md34dd505b2" y="399.179221"/>
      </g>
     </g>
     <g id="text_23">
      <!-- 1.25 -->
      <g transform="translate(114.734375 402.97844)scale(0.1 -0.1)">
       <use xlink:href="#DejaVuSans-49"/>
       <use x="63.623047" xlink:href="#DejaVuSans-46"/>
       <use x="95.410156" xlink:href="#DejaVuSans-50"/>
       <use x="159.033203" xlink:href="#DejaVuSans-53"/>
      </g>
     </g>
    </g>
    <g id="ytick_14">
     <g id="line2d_31">
      <g>
       <use style="stroke:#000000;stroke-width:0.8;" x="144" xlink:href="#md34dd505b2" y="375.335065"/>
      </g>
     </g>
     <g id="text_24">
      <!-- 1.50 -->
      <g transform="translate(114.734375 379.134284)scale(0.1 -0.1)">
       <use xlink:href="#DejaVuSans-49"/>
       <use x="63.623047" xlink:href="#DejaVuSans-46"/>
       <use x="95.410156" xlink:href="#DejaVuSans-53"/>
       <use x="159.033203" xlink:href="#DejaVuSans-48"/>
      </g>
     </g>
    </g>
    <g id="ytick_15">
     <g id="line2d_32">
      <g>
       <use style="stroke:#000000;stroke-width:0.8;" x="144" xlink:href="#md34dd505b2" y="351.490909"/>
      </g>
     </g>
     <g id="text_25">
      <!-- 1.75 -->
      <g transform="translate(114.734375 355.290128)scale(0.1 -0.1)">
       <use xlink:href="#DejaVuSans-49"/>
       <use x="63.623047" xlink:href="#DejaVuSans-46"/>
       <use x="95.410156" xlink:href="#DejaVuSans-55"/>
       <use x="159.033203" xlink:href="#DejaVuSans-53"/>
      </g>
     </g>
    </g>
    <g id="ytick_16">
     <g id="line2d_33">
      <g>
       <use style="stroke:#000000;stroke-width:0.8;" x="144" xlink:href="#md34dd505b2" y="327.646753"/>
      </g>
     </g>
     <g id="text_26">
      <!-- 2.00 -->
      <g transform="translate(114.734375 331.445972)scale(0.1 -0.1)">
       <use xlink:href="#DejaVuSans-50"/>
       <use x="63.623047" xlink:href="#DejaVuSans-46"/>
       <use x="95.410156" xlink:href="#DejaVuSans-48"/>
       <use x="159.033203" xlink:href="#DejaVuSans-48"/>
      </g>
     </g>
    </g>
    <g id="text_27">
     <!-- Anzahl -->
     <g transform="translate(108.654687 435.089702)rotate(-90)scale(0.1 -0.1)">
      <use xlink:href="#DejaVuSans-65"/>
      <use x="68.408203" xlink:href="#DejaVuSans-110"/>
      <use x="131.787109" xlink:href="#DejaVuSans-122"/>
      <use x="184.277344" xlink:href="#DejaVuSans-97"/>
      <use x="245.556641" xlink:href="#DejaVuSans-104"/>
      <use x="308.935547" xlink:href="#DejaVuSans-108"/>
     </g>
    </g>
   </g>
   <g id="patch_65">
    <path d="M 144 518.4 
L 144 318.109091 
" style="fill:none;stroke:#000000;stroke-linecap:square;stroke-linejoin:miter;stroke-width:0.8;"/>
   </g>
   <g id="patch_66">
    <path d="M 1036.8 518.4 
L 1036.8 318.109091 
" style="fill:none;stroke:#000000;stroke-linecap:square;stroke-linejoin:miter;stroke-width:0.8;"/>
   </g>
   <g id="patch_67">
    <path d="M 144 518.4 
L 1036.8 518.4 
" style="fill:none;stroke:#000000;stroke-linecap:square;stroke-linejoin:miter;stroke-width:0.8;"/>
   </g>
   <g id="patch_68">
    <path d="M 144 318.109091 
L 1036.8 318.109091 
" style="fill:none;stroke:#000000;stroke-linecap:square;stroke-linejoin:miter;stroke-width:0.8;"/>
   </g>
   <g id="text_28">
    <!-- pro Datum und Altersgruppe -->
    <g transform="translate(504.361875 312.109091)scale(0.12 -0.12)">
     <defs>
      <path d="M 18.109375 8.203125 
L 18.109375 -20.796875 
L 9.078125 -20.796875 
L 9.078125 54.6875 
L 18.109375 54.6875 
L 18.109375 46.390625 
Q 20.953125 51.265625 25.265625 53.625 
Q 29.59375 56 35.59375 56 
Q 45.5625 56 51.78125 48.09375 
Q 58.015625 40.1875 58.015625 27.296875 
Q 58.015625 14.40625 51.78125 6.484375 
Q 45.5625 -1.421875 35.59375 -1.421875 
Q 29.59375 -1.421875 25.265625 0.953125 
Q 20.953125 3.328125 18.109375 8.203125 
z
M 48.6875 27.296875 
Q 48.6875 37.203125 44.609375 42.84375 
Q 40.53125 48.484375 33.40625 48.484375 
Q 26.265625 48.484375 22.1875 42.84375 
Q 18.109375 37.203125 18.109375 27.296875 
Q 18.109375 17.390625 22.1875 11.75 
Q 26.265625 6.109375 33.40625 6.109375 
Q 40.53125 6.109375 44.609375 11.75 
Q 48.6875 17.390625 48.6875 27.296875 
z
" id="DejaVuSans-112"/>
      <path d="M 41.109375 46.296875 
Q 39.59375 47.171875 37.8125 47.578125 
Q 36.03125 48 33.890625 48 
Q 26.265625 48 22.1875 43.046875 
Q 18.109375 38.09375 18.109375 28.8125 
L 18.109375 0 
L 9.078125 0 
L 9.078125 54.6875 
L 18.109375 54.6875 
L 18.109375 46.1875 
Q 20.953125 51.171875 25.484375 53.578125 
Q 30.03125 56 36.53125 56 
Q 37.453125 56 38.578125 55.875 
Q 39.703125 55.765625 41.0625 55.515625 
z
" id="DejaVuSans-114"/>
      <path d="M 30.609375 48.390625 
Q 23.390625 48.390625 19.1875 42.75 
Q 14.984375 37.109375 14.984375 27.296875 
Q 14.984375 17.484375 19.15625 11.84375 
Q 23.34375 6.203125 30.609375 6.203125 
Q 37.796875 6.203125 41.984375 11.859375 
Q 46.1875 17.53125 46.1875 27.296875 
Q 46.1875 37.015625 41.984375 42.703125 
Q 37.796875 48.390625 30.609375 48.390625 
z
M 30.609375 56 
Q 42.328125 56 49.015625 48.375 
Q 55.71875 40.765625 55.71875 27.296875 
Q 55.71875 13.875 49.015625 6.21875 
Q 42.328125 -1.421875 30.609375 -1.421875 
Q 18.84375 -1.421875 12.171875 6.21875 
Q 5.515625 13.875 5.515625 27.296875 
Q 5.515625 40.765625 12.171875 48.375 
Q 18.84375 56 30.609375 56 
z
" id="DejaVuSans-111"/>
      <path id="DejaVuSans-32"/>
      <path d="M 19.671875 64.796875 
L 19.671875 8.109375 
L 31.59375 8.109375 
Q 46.6875 8.109375 53.6875 14.9375 
Q 60.6875 21.78125 60.6875 36.53125 
Q 60.6875 51.171875 53.6875 57.984375 
Q 46.6875 64.796875 31.59375 64.796875 
z
M 9.8125 72.90625 
L 30.078125 72.90625 
Q 51.265625 72.90625 61.171875 64.09375 
Q 71.09375 55.28125 71.09375 36.53125 
Q 71.09375 17.671875 61.125 8.828125 
Q 51.171875 0 30.078125 0 
L 9.8125 0 
z
" id="DejaVuSans-68"/>
      <path d="M 45.40625 46.390625 
L 45.40625 75.984375 
L 54.390625 75.984375 
L 54.390625 0 
L 45.40625 0 
L 45.40625 8.203125 
Q 42.578125 3.328125 38.25 0.953125 
Q 33.9375 -1.421875 27.875 -1.421875 
Q 17.96875 -1.421875 11.734375 6.484375 
Q 5.515625 14.40625 5.515625 27.296875 
Q 5.515625 40.1875 11.734375 48.09375 
Q 17.96875 56 27.875 56 
Q 33.9375 56 38.25 53.625 
Q 42.578125 51.265625 45.40625 46.390625 
z
M 14.796875 27.296875 
Q 14.796875 17.390625 18.875 11.75 
Q 22.953125 6.109375 30.078125 6.109375 
Q 37.203125 6.109375 41.296875 11.75 
Q 45.40625 17.390625 45.40625 27.296875 
Q 45.40625 37.203125 41.296875 42.84375 
Q 37.203125 48.484375 30.078125 48.484375 
Q 22.953125 48.484375 18.875 42.84375 
Q 14.796875 37.203125 14.796875 27.296875 
z
" id="DejaVuSans-100"/>
      <path d="M 56.203125 29.59375 
L 56.203125 25.203125 
L 14.890625 25.203125 
Q 15.484375 15.921875 20.484375 11.0625 
Q 25.484375 6.203125 34.421875 6.203125 
Q 39.59375 6.203125 44.453125 7.46875 
Q 49.3125 8.734375 54.109375 11.28125 
L 54.109375 2.78125 
Q 49.265625 0.734375 44.1875 -0.34375 
Q 39.109375 -1.421875 33.890625 -1.421875 
Q 20.796875 -1.421875 13.15625 6.1875 
Q 5.515625 13.8125 5.515625 26.8125 
Q 5.515625 40.234375 12.765625 48.109375 
Q 20.015625 56 32.328125 56 
Q 43.359375 56 49.78125 48.890625 
Q 56.203125 41.796875 56.203125 29.59375 
z
M 47.21875 32.234375 
Q 47.125 39.59375 43.09375 43.984375 
Q 39.0625 48.390625 32.421875 48.390625 
Q 24.90625 48.390625 20.390625 44.140625 
Q 15.875 39.890625 15.1875 32.171875 
z
" id="DejaVuSans-101"/>
      <path d="M 44.28125 53.078125 
L 44.28125 44.578125 
Q 40.484375 46.53125 36.375 47.5 
Q 32.28125 48.484375 27.875 48.484375 
Q 21.1875 48.484375 17.84375 46.4375 
Q 14.5 44.390625 14.5 40.28125 
Q 14.5 37.15625 16.890625 35.375 
Q 19.28125 33.59375 26.515625 31.984375 
L 29.59375 31.296875 
Q 39.15625 29.25 43.1875 25.515625 
Q 47.21875 21.78125 47.21875 15.09375 
Q 47.21875 7.46875 41.1875 3.015625 
Q 35.15625 -1.421875 24.609375 -1.421875 
Q 20.21875 -1.421875 15.453125 -0.5625 
Q 10.6875 0.296875 5.421875 2 
L 5.421875 11.28125 
Q 10.40625 8.6875 15.234375 7.390625 
Q 20.0625 6.109375 24.8125 6.109375 
Q 31.15625 6.109375 34.5625 8.28125 
Q 37.984375 10.453125 37.984375 14.40625 
Q 37.984375 18.0625 35.515625 20.015625 
Q 33.0625 21.96875 24.703125 23.78125 
L 21.578125 24.515625 
Q 13.234375 26.265625 9.515625 29.90625 
Q 5.8125 33.546875 5.8125 39.890625 
Q 5.8125 47.609375 11.28125 51.796875 
Q 16.75 56 26.8125 56 
Q 31.78125 56 36.171875 55.265625 
Q 40.578125 54.546875 44.28125 53.078125 
z
" id="DejaVuSans-115"/>
      <path d="M 45.40625 27.984375 
Q 45.40625 37.75 41.375 43.109375 
Q 37.359375 48.484375 30.078125 48.484375 
Q 22.859375 48.484375 18.828125 43.109375 
Q 14.796875 37.75 14.796875 27.984375 
Q 14.796875 18.265625 18.828125 12.890625 
Q 22.859375 7.515625 30.078125 7.515625 
Q 37.359375 7.515625 41.375 12.890625 
Q 45.40625 18.265625 45.40625 27.984375 
z
M 54.390625 6.78125 
Q 54.390625 -7.171875 48.1875 -13.984375 
Q 42 -20.796875 29.203125 -20.796875 
Q 24.46875 -20.796875 20.265625 -20.09375 
Q 16.0625 -19.390625 12.109375 -17.921875 
L 12.109375 -9.1875 
Q 16.0625 -11.328125 19.921875 -12.34375 
Q 23.78125 -13.375 27.78125 -13.375 
Q 36.625 -13.375 41.015625 -8.765625 
Q 45.40625 -4.15625 45.40625 5.171875 
L 45.40625 9.625 
Q 42.625 4.78125 38.28125 2.390625 
Q 33.9375 0 27.875 0 
Q 17.828125 0 11.671875 7.65625 
Q 5.515625 15.328125 5.515625 27.984375 
Q 5.515625 40.671875 11.671875 48.328125 
Q 17.828125 56 27.875 56 
Q 33.9375 56 38.28125 53.609375 
Q 42.625 51.21875 45.40625 46.390625 
L 45.40625 54.6875 
L 54.390625 54.6875 
z
" id="DejaVuSans-103"/>
     </defs>
     <use xlink:href="#DejaVuSans-112"/>
     <use x="63.476562" xlink:href="#DejaVuSans-114"/>
     <use x="102.339844" xlink:href="#DejaVuSans-111"/>
     <use x="163.521484" xlink:href="#DejaVuSans-32"/>
     <use x="195.308594" xlink:href="#DejaVuSans-68"/>
     <use x="272.310547" xlink:href="#DejaVuSans-97"/>
     <use x="333.589844" xlink:href="#DejaVuSans-116"/>
     <use x="372.798828" xlink:href="#DejaVuSans-117"/>
     <use x="436.177734" xlink:href="#DejaVuSans-109"/>
     <use x="533.589844" xlink:href="#DejaVuSans-32"/>
     <use x="565.376953" xlink:href="#DejaVuSans-117"/>
     <use x="628.755859" xlink:href="#DejaVuSans-110"/>
     <use x="692.134766" xlink:href="#DejaVuSans-100"/>
     <use x="755.611328" xlink:href="#DejaVuSans-32"/>
     <use x="787.398438" xlink:href="#DejaVuSans-65"/>
     <use x="855.806641" xlink:href="#DejaVuSans-108"/>
     <use x="883.589844" xlink:href="#DejaVuSans-116"/>
     <use x="922.798828" xlink:href="#DejaVuSans-101"/>
     <use x="984.322266" xlink:href="#DejaVuSans-114"/>
     <use x="1025.435547" xlink:href="#DejaVuSans-115"/>
     <use x="1077.535156" xlink:href="#DejaVuSans-103"/>
     <use x="1141.011719" xlink:href="#DejaVuSans-114"/>
     <use x="1182.125" xlink:href="#DejaVuSans-117"/>
     <use x="1245.503906" xlink:href="#DejaVuSans-112"/>
     <use x="1308.980469" xlink:href="#DejaVuSans-112"/>
     <use x="1372.457031" xlink:href="#DejaVuSans-101"/>
    </g>
   </g>
   <g id="legend_1">
    <g id="patch_69">
     <path d="M 151 384.821591 
L 274.98125 384.821591 
Q 276.98125 384.821591 276.98125 382.821591 
L 276.98125 325.109091 
Q 276.98125 323.109091 274.98125 323.109091 
L 151 323.109091 
Q 149 323.109091 149 325.109091 
L 149 382.821591 
Q 149 384.821591 151 384.821591 
z
" style="fill:#ffffff;opacity:0.8;stroke:#cccccc;stroke-linejoin:miter;"/>
    </g>
    <g id="patch_70">
     <path d="M 153 334.707528 
L 173 334.707528 
L 173 327.707528 
L 153 327.707528 
z
" style="fill:#1f77b4;"/>
    </g>
    <g id="text_29">
     <!-- 0-1 Month -->
     <g transform="translate(181 334.707528)scale(0.1 -0.1)">
      <defs>
       <path d="M 9.8125 72.90625 
L 24.515625 72.90625 
L 43.109375 23.296875 
L 61.8125 72.90625 
L 76.515625 72.90625 
L 76.515625 0 
L 66.890625 0 
L 66.890625 64.015625 
L 48.09375 14.015625 
L 38.1875 14.015625 
L 19.390625 64.015625 
L 19.390625 0 
L 9.8125 0 
z
" id="DejaVuSans-77"/>
      </defs>
      <use xlink:href="#DejaVuSans-48"/>
      <use x="63.623047" xlink:href="#DejaVuSans-45"/>
      <use x="99.707031" xlink:href="#DejaVuSans-49"/>
      <use x="163.330078" xlink:href="#DejaVuSans-32"/>
      <use x="195.117188" xlink:href="#DejaVuSans-77"/>
      <use x="281.396484" xlink:href="#DejaVuSans-111"/>
      <use x="342.578125" xlink:href="#DejaVuSans-110"/>
      <use x="405.957031" xlink:href="#DejaVuSans-116"/>
      <use x="445.166016" xlink:href="#DejaVuSans-104"/>
     </g>
    </g>
    <g id="patch_71">
     <path d="M 153 349.385653 
L 173 349.385653 
L 173 342.385653 
L 153 342.385653 
z
" style="fill:#ff7f0e;"/>
    </g>
    <g id="text_30">
     <!-- 2 Months - 2 Years -->
     <g transform="translate(181 349.385653)scale(0.1 -0.1)">
      <defs>
       <path d="M -0.203125 72.90625 
L 10.40625 72.90625 
L 30.609375 42.921875 
L 50.6875 72.90625 
L 61.28125 72.90625 
L 35.5 34.71875 
L 35.5 0 
L 25.59375 0 
L 25.59375 34.71875 
z
" id="DejaVuSans-89"/>
      </defs>
      <use xlink:href="#DejaVuSans-50"/>
      <use x="63.623047" xlink:href="#DejaVuSans-32"/>
      <use x="95.410156" xlink:href="#DejaVuSans-77"/>
      <use x="181.689453" xlink:href="#DejaVuSans-111"/>
      <use x="242.871094" xlink:href="#DejaVuSans-110"/>
      <use x="306.25" xlink:href="#DejaVuSans-116"/>
      <use x="345.458984" xlink:href="#DejaVuSans-104"/>
      <use x="408.837891" xlink:href="#DejaVuSans-115"/>
      <use x="460.9375" xlink:href="#DejaVuSans-32"/>
      <use x="492.724609" xlink:href="#DejaVuSans-45"/>
      <use x="528.808594" xlink:href="#DejaVuSans-32"/>
      <use x="560.595703" xlink:href="#DejaVuSans-50"/>
      <use x="624.21875" xlink:href="#DejaVuSans-32"/>
      <use x="656.005859" xlink:href="#DejaVuSans-89"/>
      <use x="703.839844" xlink:href="#DejaVuSans-101"/>
      <use x="765.363281" xlink:href="#DejaVuSans-97"/>
      <use x="826.642578" xlink:href="#DejaVuSans-114"/>
      <use x="867.755859" xlink:href="#DejaVuSans-115"/>
     </g>
    </g>
    <g id="patch_72">
     <path d="M 153 364.063778 
L 173 364.063778 
L 173 357.063778 
L 153 357.063778 
z
" style="fill:#2ca02c;"/>
    </g>
    <g id="text_31">
     <!-- 3-11 Years -->
     <g transform="translate(181 364.063778)scale(0.1 -0.1)">
      <use xlink:href="#DejaVuSans-51"/>
      <use x="63.623047" xlink:href="#DejaVuSans-45"/>
      <use x="99.707031" xlink:href="#DejaVuSans-49"/>
      <use x="163.330078" xlink:href="#DejaVuSans-49"/>
      <use x="226.953125" xlink:href="#DejaVuSans-32"/>
      <use x="258.740234" xlink:href="#DejaVuSans-89"/>
      <use x="306.574219" xlink:href="#DejaVuSans-101"/>
      <use x="368.097656" xlink:href="#DejaVuSans-97"/>
      <use x="429.376953" xlink:href="#DejaVuSans-114"/>
      <use x="470.490234" xlink:href="#DejaVuSans-115"/>
     </g>
    </g>
    <g id="patch_73">
     <path d="M 153 378.741903 
L 173 378.741903 
L 173 371.741903 
L 153 371.741903 
z
" style="fill:#d62728;"/>
    </g>
    <g id="text_32">
     <!-- 12-17 Years -->
     <g transform="translate(181 378.741903)scale(0.1 -0.1)">
      <use xlink:href="#DejaVuSans-49"/>
      <use x="63.623047" xlink:href="#DejaVuSans-50"/>
      <use x="127.246094" xlink:href="#DejaVuSans-45"/>
      <use x="163.330078" xlink:href="#DejaVuSans-49"/>
      <use x="226.953125" xlink:href="#DejaVuSans-55"/>
      <use x="290.576172" xlink:href="#DejaVuSans-32"/>
      <use x="322.363281" xlink:href="#DejaVuSans-89"/>
      <use x="370.197266" xlink:href="#DejaVuSans-101"/>
      <use x="431.720703" xlink:href="#DejaVuSans-97"/>
      <use x="493" xlink:href="#DejaVuSans-114"/>
      <use x="534.113281" xlink:href="#DejaVuSans-115"/>
     </g>
    </g>
   </g>
  </g>
  <g id="text_33">
   <!-- schwere Nebenwirkungen in den Altersgruppen [0-17] kumulativ und pro Datum  -->
   <g transform="translate(170.2 28.156875)scale(0.2 -0.2)">
    <defs>
     <path d="M 48.78125 52.59375 
L 48.78125 44.1875 
Q 44.96875 46.296875 41.140625 47.34375 
Q 37.3125 48.390625 33.40625 48.390625 
Q 24.65625 48.390625 19.8125 42.84375 
Q 14.984375 37.3125 14.984375 27.296875 
Q 14.984375 17.28125 19.8125 11.734375 
Q 24.65625 6.203125 33.40625 6.203125 
Q 37.3125 6.203125 41.140625 7.25 
Q 44.96875 8.296875 48.78125 10.40625 
L 48.78125 2.09375 
Q 45.015625 0.34375 40.984375 -0.53125 
Q 36.96875 -1.421875 32.421875 -1.421875 
Q 20.0625 -1.421875 12.78125 6.34375 
Q 5.515625 14.109375 5.515625 27.296875 
Q 5.515625 40.671875 12.859375 48.328125 
Q 20.21875 56 33.015625 56 
Q 37.15625 56 41.109375 55.140625 
Q 45.0625 54.296875 48.78125 52.59375 
z
" id="DejaVuSans-99"/>
     <path d="M 4.203125 54.6875 
L 13.1875 54.6875 
L 24.421875 12.015625 
L 35.59375 54.6875 
L 46.1875 54.6875 
L 57.421875 12.015625 
L 68.609375 54.6875 
L 77.59375 54.6875 
L 63.28125 0 
L 52.6875 0 
L 40.921875 44.828125 
L 29.109375 0 
L 18.5 0 
z
" id="DejaVuSans-119"/>
     <path d="M 9.8125 72.90625 
L 23.09375 72.90625 
L 55.421875 11.921875 
L 55.421875 72.90625 
L 64.984375 72.90625 
L 64.984375 0 
L 51.703125 0 
L 19.390625 60.984375 
L 19.390625 0 
L 9.8125 0 
z
" id="DejaVuSans-78"/>
     <path d="M 48.6875 27.296875 
Q 48.6875 37.203125 44.609375 42.84375 
Q 40.53125 48.484375 33.40625 48.484375 
Q 26.265625 48.484375 22.1875 42.84375 
Q 18.109375 37.203125 18.109375 27.296875 
Q 18.109375 17.390625 22.1875 11.75 
Q 26.265625 6.109375 33.40625 6.109375 
Q 40.53125 6.109375 44.609375 11.75 
Q 48.6875 17.390625 48.6875 27.296875 
z
M 18.109375 46.390625 
Q 20.953125 51.265625 25.265625 53.625 
Q 29.59375 56 35.59375 56 
Q 45.5625 56 51.78125 48.09375 
Q 58.015625 40.1875 58.015625 27.296875 
Q 58.015625 14.40625 51.78125 6.484375 
Q 45.5625 -1.421875 35.59375 -1.421875 
Q 29.59375 -1.421875 25.265625 0.953125 
Q 20.953125 3.328125 18.109375 8.203125 
L 18.109375 0 
L 9.078125 0 
L 9.078125 75.984375 
L 18.109375 75.984375 
z
" id="DejaVuSans-98"/>
     <path d="M 8.59375 75.984375 
L 29.296875 75.984375 
L 29.296875 69 
L 17.578125 69 
L 17.578125 -6.203125 
L 29.296875 -6.203125 
L 29.296875 -13.1875 
L 8.59375 -13.1875 
z
" id="DejaVuSans-91"/>
     <path d="M 30.421875 75.984375 
L 30.421875 -13.1875 
L 9.71875 -13.1875 
L 9.71875 -6.203125 
L 21.390625 -6.203125 
L 21.390625 69 
L 9.71875 69 
L 9.71875 75.984375 
z
" id="DejaVuSans-93"/>
    </defs>
    <use xlink:href="#DejaVuSans-115"/>
    <use x="52.099609" xlink:href="#DejaVuSans-99"/>
    <use x="107.080078" xlink:href="#DejaVuSans-104"/>
    <use x="170.458984" xlink:href="#DejaVuSans-119"/>
    <use x="252.246094" xlink:href="#DejaVuSans-101"/>
    <use x="313.769531" xlink:href="#DejaVuSans-114"/>
    <use x="352.632812" xlink:href="#DejaVuSans-101"/>
    <use x="414.15625" xlink:href="#DejaVuSans-32"/>
    <use x="445.943359" xlink:href="#DejaVuSans-78"/>
    <use x="520.748047" xlink:href="#DejaVuSans-101"/>
    <use x="582.271484" xlink:href="#DejaVuSans-98"/>
    <use x="645.748047" xlink:href="#DejaVuSans-101"/>
    <use x="707.271484" xlink:href="#DejaVuSans-110"/>
    <use x="770.650391" xlink:href="#DejaVuSans-119"/>
    <use x="852.4375" xlink:href="#DejaVuSans-105"/>
    <use x="880.220703" xlink:href="#DejaVuSans-114"/>
    <use x="921.333984" xlink:href="#DejaVuSans-107"/>
    <use x="976.119141" xlink:href="#DejaVuSans-117"/>
    <use x="1039.498047" xlink:href="#DejaVuSans-110"/>
    <use x="1102.876953" xlink:href="#DejaVuSans-103"/>
    <use x="1166.353516" xlink:href="#DejaVuSans-101"/>
    <use x="1227.876953" xlink:href="#DejaVuSans-110"/>
    <use x="1291.255859" xlink:href="#DejaVuSans-32"/>
    <use x="1323.042969" xlink:href="#DejaVuSans-105"/>
    <use x="1350.826172" xlink:href="#DejaVuSans-110"/>
    <use x="1414.205078" xlink:href="#DejaVuSans-32"/>
    <use x="1445.992188" xlink:href="#DejaVuSans-100"/>
    <use x="1509.46875" xlink:href="#DejaVuSans-101"/>
    <use x="1570.992188" xlink:href="#DejaVuSans-110"/>
    <use x="1634.371094" xlink:href="#DejaVuSans-32"/>
    <use x="1666.158203" xlink:href="#DejaVuSans-65"/>
    <use x="1734.566406" xlink:href="#DejaVuSans-108"/>
    <use x="1762.349609" xlink:href="#DejaVuSans-116"/>
    <use x="1801.558594" xlink:href="#DejaVuSans-101"/>
    <use x="1863.082031" xlink:href="#DejaVuSans-114"/>
    <use x="1904.195312" xlink:href="#DejaVuSans-115"/>
    <use x="1956.294922" xlink:href="#DejaVuSans-103"/>
    <use x="2019.771484" xlink:href="#DejaVuSans-114"/>
    <use x="2060.884766" xlink:href="#DejaVuSans-117"/>
    <use x="2124.263672" xlink:href="#DejaVuSans-112"/>
    <use x="2187.740234" xlink:href="#DejaVuSans-112"/>
    <use x="2251.216797" xlink:href="#DejaVuSans-101"/>
    <use x="2312.740234" xlink:href="#DejaVuSans-110"/>
    <use x="2376.119141" xlink:href="#DejaVuSans-32"/>
    <use x="2407.90625" xlink:href="#DejaVuSans-91"/>
    <use x="2446.919922" xlink:href="#DejaVuSans-48"/>
    <use x="2510.542969" xlink:href="#DejaVuSans-45"/>
    <use x="2546.626953" xlink:href="#DejaVuSans-49"/>
    <use x="2610.25" xlink:href="#DejaVuSans-55"/>
    <use x="2673.873047" xlink:href="#DejaVuSans-93"/>
    <use x="2712.886719" xlink:href="#DejaVuSans-32"/>
    <use x="2744.673828" xlink:href="#DejaVuSans-107"/>
    <use x="2799.458984" xlink:href="#DejaVuSans-117"/>
    <use x="2862.837891" xlink:href="#DejaVuSans-109"/>
    <use x="2960.25" xlink:href="#DejaVuSans-117"/>
    <use x="3023.628906" xlink:href="#DejaVuSans-108"/>
    <use x="3051.412109" xlink:href="#DejaVuSans-97"/>
    <use x="3112.691406" xlink:href="#DejaVuSans-116"/>
    <use x="3151.900391" xlink:href="#DejaVuSans-105"/>
    <use x="3179.683594" xlink:href="#DejaVuSans-118"/>
    <use x="3238.863281" xlink:href="#DejaVuSans-32"/>
    <use x="3270.650391" xlink:href="#DejaVuSans-117"/>
    <use x="3334.029297" xlink:href="#DejaVuSans-110"/>
    <use x="3397.408203" xlink:href="#DejaVuSans-100"/>
    <use x="3460.884766" xlink:href="#DejaVuSans-32"/>
    <use x="3492.671875" xlink:href="#DejaVuSans-112"/>
    <use x="3556.148438" xlink:href="#DejaVuSans-114"/>
    <use x="3595.011719" xlink:href="#DejaVuSans-111"/>
    <use x="3656.193359" xlink:href="#DejaVuSans-32"/>
    <use x="3687.980469" xlink:href="#DejaVuSans-68"/>
    <use x="3764.982422" xlink:href="#DejaVuSans-97"/>
    <use x="3826.261719" xlink:href="#DejaVuSans-116"/>
    <use x="3865.470703" xlink:href="#DejaVuSans-117"/>
    <use x="3928.849609" xlink:href="#DejaVuSans-109"/>
    <use x="4026.261719" xlink:href="#DejaVuSans-32"/>
   </g>
  </g>
  <g id="text_34">
   <!-- Alle Flle in den Altersgruppen 0-17, deren Diagnose irgendeinen der folgende Wrter enthalten: "Death|Fatal|Life Threatening|Hospitalization|Disabling" -->
   <g transform="translate(115.2 631.56375)scale(0.1 -0.1)">
    <defs>
     <path d="M 9.8125 72.90625 
L 51.703125 72.90625 
L 51.703125 64.59375 
L 19.671875 64.59375 
L 19.671875 43.109375 
L 48.578125 43.109375 
L 48.578125 34.8125 
L 19.671875 34.8125 
L 19.671875 0 
L 9.8125 0 
z
" id="DejaVuSans-70"/>
     <path d="M 34.28125 27.484375 
Q 23.390625 27.484375 19.1875 25 
Q 14.984375 22.515625 14.984375 16.5 
Q 14.984375 11.71875 18.140625 8.90625 
Q 21.296875 6.109375 26.703125 6.109375 
Q 34.1875 6.109375 38.703125 11.40625 
Q 43.21875 16.703125 43.21875 25.484375 
L 43.21875 27.484375 
z
M 52.203125 31.203125 
L 52.203125 0 
L 43.21875 0 
L 43.21875 8.296875 
Q 40.140625 3.328125 35.546875 0.953125 
Q 30.953125 -1.421875 24.3125 -1.421875 
Q 15.921875 -1.421875 10.953125 3.296875 
Q 6 8.015625 6 15.921875 
Q 6 25.140625 12.171875 29.828125 
Q 18.359375 34.515625 30.609375 34.515625 
L 43.21875 34.515625 
L 43.21875 35.40625 
Q 43.21875 41.609375 39.140625 45 
Q 35.0625 48.390625 27.6875 48.390625 
Q 23 48.390625 18.546875 47.265625 
Q 14.109375 46.140625 10.015625 43.890625 
L 10.015625 52.203125 
Q 14.9375 54.109375 19.578125 55.046875 
Q 24.21875 56 28.609375 56 
Q 40.484375 56 46.34375 49.84375 
Q 52.203125 43.703125 52.203125 31.203125 
z
M 33.59375 75.78125 
L 43.5 75.78125 
L 43.5 65.921875 
L 33.59375 65.921875 
z
M 14.5 75.78125 
L 24.40625 75.78125 
L 24.40625 65.921875 
L 14.5 65.921875 
z
" id="DejaVuSans-228"/>
     <path d="M 11.71875 12.40625 
L 22.015625 12.40625 
L 22.015625 4 
L 14.015625 -11.625 
L 7.71875 -11.625 
L 11.71875 4 
z
" id="DejaVuSans-44"/>
     <path d="M 37.109375 75.984375 
L 37.109375 68.5 
L 28.515625 68.5 
Q 23.6875 68.5 21.796875 66.546875 
Q 19.921875 64.59375 19.921875 59.515625 
L 19.921875 54.6875 
L 34.71875 54.6875 
L 34.71875 47.703125 
L 19.921875 47.703125 
L 19.921875 0 
L 10.890625 0 
L 10.890625 47.703125 
L 2.296875 47.703125 
L 2.296875 54.6875 
L 10.890625 54.6875 
L 10.890625 58.5 
Q 10.890625 67.625 15.140625 71.796875 
Q 19.390625 75.984375 28.609375 75.984375 
z
" id="DejaVuSans-102"/>
     <path d="M 3.328125 72.90625 
L 13.28125 72.90625 
L 28.609375 11.28125 
L 43.890625 72.90625 
L 54.984375 72.90625 
L 70.3125 11.28125 
L 85.59375 72.90625 
L 95.609375 72.90625 
L 77.296875 0 
L 64.890625 0 
L 49.515625 63.28125 
L 33.984375 0 
L 21.578125 0 
z
" id="DejaVuSans-87"/>
     <path d="M 30.609375 48.390625 
Q 23.390625 48.390625 19.1875 42.75 
Q 14.984375 37.109375 14.984375 27.296875 
Q 14.984375 17.484375 19.15625 11.84375 
Q 23.34375 6.203125 30.609375 6.203125 
Q 37.796875 6.203125 41.984375 11.859375 
Q 46.1875 17.53125 46.1875 27.296875 
Q 46.1875 37.015625 41.984375 42.703125 
Q 37.796875 48.390625 30.609375 48.390625 
z
M 30.609375 56 
Q 42.328125 56 49.015625 48.375 
Q 55.71875 40.765625 55.71875 27.296875 
Q 55.71875 13.875 49.015625 6.21875 
Q 42.328125 -1.421875 30.609375 -1.421875 
Q 18.84375 -1.421875 12.171875 6.21875 
Q 5.515625 13.875 5.515625 27.296875 
Q 5.515625 40.765625 12.171875 48.375 
Q 18.84375 56 30.609375 56 
z
M 35.21875 75.78125 
L 45.125 75.78125 
L 45.125 65.921875 
L 35.21875 65.921875 
z
M 16.125 75.78125 
L 26.03125 75.78125 
L 26.03125 65.921875 
L 16.125 65.921875 
z
" id="DejaVuSans-246"/>
     <path d="M 11.71875 12.40625 
L 22.015625 12.40625 
L 22.015625 0 
L 11.71875 0 
z
M 11.71875 51.703125 
L 22.015625 51.703125 
L 22.015625 39.3125 
L 11.71875 39.3125 
z
" id="DejaVuSans-58"/>
     <path d="M 17.921875 72.90625 
L 17.921875 45.796875 
L 9.625 45.796875 
L 9.625 72.90625 
z
M 36.375 72.90625 
L 36.375 45.796875 
L 28.078125 45.796875 
L 28.078125 72.90625 
z
" id="DejaVuSans-34"/>
     <path d="M 21 76.421875 
L 21 -23.578125 
L 12.703125 -23.578125 
L 12.703125 76.421875 
z
" id="DejaVuSans-124"/>
     <path d="M 9.8125 72.90625 
L 19.671875 72.90625 
L 19.671875 8.296875 
L 55.171875 8.296875 
L 55.171875 0 
L 9.8125 0 
z
" id="DejaVuSans-76"/>
     <path d="M -0.296875 72.90625 
L 61.375 72.90625 
L 61.375 64.59375 
L 35.5 64.59375 
L 35.5 0 
L 25.59375 0 
L 25.59375 64.59375 
L -0.296875 64.59375 
z
" id="DejaVuSans-84"/>
     <path d="M 9.8125 72.90625 
L 19.671875 72.90625 
L 19.671875 43.015625 
L 55.515625 43.015625 
L 55.515625 72.90625 
L 65.375 72.90625 
L 65.375 0 
L 55.515625 0 
L 55.515625 34.71875 
L 19.671875 34.71875 
L 19.671875 0 
L 9.8125 0 
z
" id="DejaVuSans-72"/>
    </defs>
    <use xlink:href="#DejaVuSans-65"/>
    <use x="68.408203" xlink:href="#DejaVuSans-108"/>
    <use x="96.191406" xlink:href="#DejaVuSans-108"/>
    <use x="123.974609" xlink:href="#DejaVuSans-101"/>
    <use x="185.498047" xlink:href="#DejaVuSans-32"/>
    <use x="217.285156" xlink:href="#DejaVuSans-70"/>
    <use x="265.679688" xlink:href="#DejaVuSans-228"/>
    <use x="326.958984" xlink:href="#DejaVuSans-108"/>
    <use x="354.742188" xlink:href="#DejaVuSans-108"/>
    <use x="382.525391" xlink:href="#DejaVuSans-101"/>
    <use x="444.048828" xlink:href="#DejaVuSans-32"/>
    <use x="475.835938" xlink:href="#DejaVuSans-105"/>
    <use x="503.619141" xlink:href="#DejaVuSans-110"/>
    <use x="566.998047" xlink:href="#DejaVuSans-32"/>
    <use x="598.785156" xlink:href="#DejaVuSans-100"/>
    <use x="662.261719" xlink:href="#DejaVuSans-101"/>
    <use x="723.785156" xlink:href="#DejaVuSans-110"/>
    <use x="787.164062" xlink:href="#DejaVuSans-32"/>
    <use x="818.951172" xlink:href="#DejaVuSans-65"/>
    <use x="887.359375" xlink:href="#DejaVuSans-108"/>
    <use x="915.142578" xlink:href="#DejaVuSans-116"/>
    <use x="954.351562" xlink:href="#DejaVuSans-101"/>
    <use x="1015.875" xlink:href="#DejaVuSans-114"/>
    <use x="1056.988281" xlink:href="#DejaVuSans-115"/>
    <use x="1109.087891" xlink:href="#DejaVuSans-103"/>
    <use x="1172.564453" xlink:href="#DejaVuSans-114"/>
    <use x="1213.677734" xlink:href="#DejaVuSans-117"/>
    <use x="1277.056641" xlink:href="#DejaVuSans-112"/>
    <use x="1340.533203" xlink:href="#DejaVuSans-112"/>
    <use x="1404.009766" xlink:href="#DejaVuSans-101"/>
    <use x="1465.533203" xlink:href="#DejaVuSans-110"/>
    <use x="1528.912109" xlink:href="#DejaVuSans-32"/>
    <use x="1560.699219" xlink:href="#DejaVuSans-48"/>
    <use x="1624.322266" xlink:href="#DejaVuSans-45"/>
    <use x="1660.40625" xlink:href="#DejaVuSans-49"/>
    <use x="1724.029297" xlink:href="#DejaVuSans-55"/>
    <use x="1787.652344" xlink:href="#DejaVuSans-44"/>
    <use x="1819.439453" xlink:href="#DejaVuSans-32"/>
    <use x="1851.226562" xlink:href="#DejaVuSans-100"/>
    <use x="1914.703125" xlink:href="#DejaVuSans-101"/>
    <use x="1976.226562" xlink:href="#DejaVuSans-114"/>
    <use x="2015.089844" xlink:href="#DejaVuSans-101"/>
    <use x="2076.613281" xlink:href="#DejaVuSans-110"/>
    <use x="2139.992188" xlink:href="#DejaVuSans-32"/>
    <use x="2171.779297" xlink:href="#DejaVuSans-68"/>
    <use x="2248.78125" xlink:href="#DejaVuSans-105"/>
    <use x="2276.564453" xlink:href="#DejaVuSans-97"/>
    <use x="2337.84375" xlink:href="#DejaVuSans-103"/>
    <use x="2401.320312" xlink:href="#DejaVuSans-110"/>
    <use x="2464.699219" xlink:href="#DejaVuSans-111"/>
    <use x="2525.880859" xlink:href="#DejaVuSans-115"/>
    <use x="2577.980469" xlink:href="#DejaVuSans-101"/>
    <use x="2639.503906" xlink:href="#DejaVuSans-32"/>
    <use x="2671.291016" xlink:href="#DejaVuSans-105"/>
    <use x="2699.074219" xlink:href="#DejaVuSans-114"/>
    <use x="2738.4375" xlink:href="#DejaVuSans-103"/>
    <use x="2801.914062" xlink:href="#DejaVuSans-101"/>
    <use x="2863.4375" xlink:href="#DejaVuSans-110"/>
    <use x="2926.816406" xlink:href="#DejaVuSans-100"/>
    <use x="2990.292969" xlink:href="#DejaVuSans-101"/>
    <use x="3051.816406" xlink:href="#DejaVuSans-105"/>
    <use x="3079.599609" xlink:href="#DejaVuSans-110"/>
    <use x="3142.978516" xlink:href="#DejaVuSans-101"/>
    <use x="3204.501953" xlink:href="#DejaVuSans-110"/>
    <use x="3267.880859" xlink:href="#DejaVuSans-32"/>
    <use x="3299.667969" xlink:href="#DejaVuSans-100"/>
    <use x="3363.144531" xlink:href="#DejaVuSans-101"/>
    <use x="3424.667969" xlink:href="#DejaVuSans-114"/>
    <use x="3465.78125" xlink:href="#DejaVuSans-32"/>
    <use x="3497.568359" xlink:href="#DejaVuSans-102"/>
    <use x="3532.773438" xlink:href="#DejaVuSans-111"/>
    <use x="3593.955078" xlink:href="#DejaVuSans-108"/>
    <use x="3621.738281" xlink:href="#DejaVuSans-103"/>
    <use x="3685.214844" xlink:href="#DejaVuSans-101"/>
    <use x="3746.738281" xlink:href="#DejaVuSans-110"/>
    <use x="3810.117188" xlink:href="#DejaVuSans-100"/>
    <use x="3873.59375" xlink:href="#DejaVuSans-101"/>
    <use x="3935.117188" xlink:href="#DejaVuSans-32"/>
    <use x="3966.904297" xlink:href="#DejaVuSans-87"/>
    <use x="4059.90625" xlink:href="#DejaVuSans-246"/>
    <use x="4121.087891" xlink:href="#DejaVuSans-114"/>
    <use x="4162.201172" xlink:href="#DejaVuSans-116"/>
    <use x="4201.410156" xlink:href="#DejaVuSans-101"/>
    <use x="4262.933594" xlink:href="#DejaVuSans-114"/>
    <use x="4304.046875" xlink:href="#DejaVuSans-32"/>
    <use x="4335.833984" xlink:href="#DejaVuSans-101"/>
    <use x="4397.357422" xlink:href="#DejaVuSans-110"/>
    <use x="4460.736328" xlink:href="#DejaVuSans-116"/>
    <use x="4499.945312" xlink:href="#DejaVuSans-104"/>
    <use x="4563.324219" xlink:href="#DejaVuSans-97"/>
    <use x="4624.603516" xlink:href="#DejaVuSans-108"/>
    <use x="4652.386719" xlink:href="#DejaVuSans-116"/>
    <use x="4691.595703" xlink:href="#DejaVuSans-101"/>
    <use x="4753.119141" xlink:href="#DejaVuSans-110"/>
    <use x="4816.498047" xlink:href="#DejaVuSans-58"/>
    <use x="4850.189453" xlink:href="#DejaVuSans-32"/>
    <use x="4881.976562" xlink:href="#DejaVuSans-34"/>
    <use x="4927.972656" xlink:href="#DejaVuSans-68"/>
    <use x="5004.974609" xlink:href="#DejaVuSans-101"/>
    <use x="5066.498047" xlink:href="#DejaVuSans-97"/>
    <use x="5127.777344" xlink:href="#DejaVuSans-116"/>
    <use x="5166.986328" xlink:href="#DejaVuSans-104"/>
    <use x="5230.365234" xlink:href="#DejaVuSans-124"/>
    <use x="5264.056641" xlink:href="#DejaVuSans-70"/>
    <use x="5312.451172" xlink:href="#DejaVuSans-97"/>
    <use x="5373.730469" xlink:href="#DejaVuSans-116"/>
    <use x="5412.939453" xlink:href="#DejaVuSans-97"/>
    <use x="5474.21875" xlink:href="#DejaVuSans-108"/>
    <use x="5502.001953" xlink:href="#DejaVuSans-124"/>
    <use x="5535.693359" xlink:href="#DejaVuSans-76"/>
    <use x="5591.40625" xlink:href="#DejaVuSans-105"/>
    <use x="5619.189453" xlink:href="#DejaVuSans-102"/>
    <use x="5654.394531" xlink:href="#DejaVuSans-101"/>
    <use x="5715.917969" xlink:href="#DejaVuSans-32"/>
    <use x="5747.705078" xlink:href="#DejaVuSans-84"/>
    <use x="5808.789062" xlink:href="#DejaVuSans-104"/>
    <use x="5872.167969" xlink:href="#DejaVuSans-114"/>
    <use x="5911.03125" xlink:href="#DejaVuSans-101"/>
    <use x="5972.554688" xlink:href="#DejaVuSans-97"/>
    <use x="6033.833984" xlink:href="#DejaVuSans-116"/>
    <use x="6073.042969" xlink:href="#DejaVuSans-101"/>
    <use x="6134.566406" xlink:href="#DejaVuSans-110"/>
    <use x="6197.945312" xlink:href="#DejaVuSans-105"/>
    <use x="6225.728516" xlink:href="#DejaVuSans-110"/>
    <use x="6289.107422" xlink:href="#DejaVuSans-103"/>
    <use x="6352.583984" xlink:href="#DejaVuSans-124"/>
    <use x="6386.275391" xlink:href="#DejaVuSans-72"/>
    <use x="6461.470703" xlink:href="#DejaVuSans-111"/>
    <use x="6522.652344" xlink:href="#DejaVuSans-115"/>
    <use x="6574.751953" xlink:href="#DejaVuSans-112"/>
    <use x="6638.228516" xlink:href="#DejaVuSans-105"/>
    <use x="6666.011719" xlink:href="#DejaVuSans-116"/>
    <use x="6705.220703" xlink:href="#DejaVuSans-97"/>
    <use x="6766.5" xlink:href="#DejaVuSans-108"/>
    <use x="6794.283203" xlink:href="#DejaVuSans-105"/>
    <use x="6822.066406" xlink:href="#DejaVuSans-122"/>
    <use x="6874.556641" xlink:href="#DejaVuSans-97"/>
    <use x="6935.835938" xlink:href="#DejaVuSans-116"/>
    <use x="6975.044922" xlink:href="#DejaVuSans-105"/>
    <use x="7002.828125" xlink:href="#DejaVuSans-111"/>
    <use x="7064.009766" xlink:href="#DejaVuSans-110"/>
    <use x="7127.388672" xlink:href="#DejaVuSans-124"/>
    <use x="7161.080078" xlink:href="#DejaVuSans-68"/>
    <use x="7238.082031" xlink:href="#DejaVuSans-105"/>
    <use x="7265.865234" xlink:href="#DejaVuSans-115"/>
    <use x="7317.964844" xlink:href="#DejaVuSans-97"/>
    <use x="7379.244141" xlink:href="#DejaVuSans-98"/>
    <use x="7442.720703" xlink:href="#DejaVuSans-108"/>
    <use x="7470.503906" xlink:href="#DejaVuSans-105"/>
    <use x="7498.287109" xlink:href="#DejaVuSans-110"/>
    <use x="7561.666016" xlink:href="#DejaVuSans-103"/>
    <use x="7625.142578" xlink:href="#DejaVuSans-34"/>
   </g>
   <!-- Quelle: EMA-Datenbank www.adrreports.eu/ -->
   <g transform="translate(115.2 643.039688)scale(0.1 -0.1)">
    <defs>
     <path d="M 39.40625 66.21875 
Q 28.65625 66.21875 22.328125 58.203125 
Q 16.015625 50.203125 16.015625 36.375 
Q 16.015625 22.609375 22.328125 14.59375 
Q 28.65625 6.59375 39.40625 6.59375 
Q 50.140625 6.59375 56.421875 14.59375 
Q 62.703125 22.609375 62.703125 36.375 
Q 62.703125 50.203125 56.421875 58.203125 
Q 50.140625 66.21875 39.40625 66.21875 
z
M 53.21875 1.3125 
L 66.21875 -12.890625 
L 54.296875 -12.890625 
L 43.5 -1.21875 
Q 41.890625 -1.3125 41.03125 -1.359375 
Q 40.1875 -1.421875 39.40625 -1.421875 
Q 24.03125 -1.421875 14.8125 8.859375 
Q 5.609375 19.140625 5.609375 36.375 
Q 5.609375 53.65625 14.8125 63.9375 
Q 24.03125 74.21875 39.40625 74.21875 
Q 54.734375 74.21875 63.90625 63.9375 
Q 73.09375 53.65625 73.09375 36.375 
Q 73.09375 23.6875 67.984375 14.640625 
Q 62.890625 5.609375 53.21875 1.3125 
z
" id="DejaVuSans-81"/>
     <path d="M 9.8125 72.90625 
L 55.90625 72.90625 
L 55.90625 64.59375 
L 19.671875 64.59375 
L 19.671875 43.015625 
L 54.390625 43.015625 
L 54.390625 34.71875 
L 19.671875 34.71875 
L 19.671875 8.296875 
L 56.78125 8.296875 
L 56.78125 0 
L 9.8125 0 
z
" id="DejaVuSans-69"/>
     <path d="M 25.390625 72.90625 
L 33.6875 72.90625 
L 8.296875 -9.28125 
L 0 -9.28125 
z
" id="DejaVuSans-47"/>
    </defs>
    <use xlink:href="#DejaVuSans-81"/>
    <use x="78.710938" xlink:href="#DejaVuSans-117"/>
    <use x="142.089844" xlink:href="#DejaVuSans-101"/>
    <use x="203.613281" xlink:href="#DejaVuSans-108"/>
    <use x="231.396484" xlink:href="#DejaVuSans-108"/>
    <use x="259.179688" xlink:href="#DejaVuSans-101"/>
    <use x="320.703125" xlink:href="#DejaVuSans-58"/>
    <use x="354.394531" xlink:href="#DejaVuSans-32"/>
    <use x="386.181641" xlink:href="#DejaVuSans-69"/>
    <use x="449.365234" xlink:href="#DejaVuSans-77"/>
    <use x="535.644531" xlink:href="#DejaVuSans-65"/>
    <use x="601.802734" xlink:href="#DejaVuSans-45"/>
    <use x="637.886719" xlink:href="#DejaVuSans-68"/>
    <use x="714.888672" xlink:href="#DejaVuSans-97"/>
    <use x="776.167969" xlink:href="#DejaVuSans-116"/>
    <use x="815.376953" xlink:href="#DejaVuSans-101"/>
    <use x="876.900391" xlink:href="#DejaVuSans-110"/>
    <use x="940.279297" xlink:href="#DejaVuSans-98"/>
    <use x="1003.755859" xlink:href="#DejaVuSans-97"/>
    <use x="1065.035156" xlink:href="#DejaVuSans-110"/>
    <use x="1128.414062" xlink:href="#DejaVuSans-107"/>
    <use x="1186.324219" xlink:href="#DejaVuSans-32"/>
    <use x="1218.111328" xlink:href="#DejaVuSans-119"/>
    <use x="1299.898438" xlink:href="#DejaVuSans-119"/>
    <use x="1381.685547" xlink:href="#DejaVuSans-119"/>
    <use x="1454.347656" xlink:href="#DejaVuSans-46"/>
    <use x="1486.134766" xlink:href="#DejaVuSans-97"/>
    <use x="1547.414062" xlink:href="#DejaVuSans-100"/>
    <use x="1610.890625" xlink:href="#DejaVuSans-114"/>
    <use x="1650.253906" xlink:href="#DejaVuSans-114"/>
    <use x="1689.117188" xlink:href="#DejaVuSans-101"/>
    <use x="1750.640625" xlink:href="#DejaVuSans-112"/>
    <use x="1814.117188" xlink:href="#DejaVuSans-111"/>
    <use x="1875.298828" xlink:href="#DejaVuSans-114"/>
    <use x="1916.412109" xlink:href="#DejaVuSans-116"/>
    <use x="1955.621094" xlink:href="#DejaVuSans-115"/>
    <use x="2007.720703" xlink:href="#DejaVuSans-46"/>
    <use x="2039.507812" xlink:href="#DejaVuSans-101"/>
    <use x="2101.03125" xlink:href="#DejaVuSans-117"/>
    <use x="2164.410156" xlink:href="#DejaVuSans-47"/>
   </g>
  </g>
 </g>
 <defs>
  <clipPath id="p9c58ba64b9">
   <rect height="200.290909" width="892.8" x="144" y="77.76"/>
  </clipPath>
  <clipPath id="p613b0161d5">
   <rect height="200.290909" width="892.8" x="144" y="318.109091"/>
  </clipPath>
 </defs>
</svg>
