<?xml version="1.0" encoding="utf-8" standalone="no"?>
<!DOCTYPE svg PUBLIC "-//W3C//DTD SVG 1.1//EN"
  "http://www.w3.org/Graphics/SVG/1.1/DTD/svg11.dtd">
<!-- Created with matplotlib (https://matplotlib.org/) -->
<svg height="504pt" version="1.1" viewBox="0 0 720 504" width="720pt" xmlns="http://www.w3.org/2000/svg" xmlns:xlink="http://www.w3.org/1999/xlink">
 <metadata>
  <rdf:RDF xmlns:cc="http://creativecommons.org/ns#" xmlns:dc="http://purl.org/dc/elements/1.1/" xmlns:rdf="http://www.w3.org/1999/02/22-rdf-syntax-ns#">
   <cc:Work>
    <dc:type rdf:resource="http://purl.org/dc/dcmitype/StillImage"/>
    <dc:date>2021-05-22T23:38:32.509420</dc:date>
    <dc:format>image/svg+xml</dc:format>
    <dc:creator>
     <cc:Agent>
      <dc:title>Matplotlib v3.3.4, https://matplotlib.org/</dc:title>
     </cc:Agent>
    </dc:creator>
   </cc:Work>
  </rdf:RDF>
 </metadata>
 <defs>
  <style type="text/css">*{stroke-linecap:butt;stroke-linejoin:round;}</style>
 </defs>
 <g id="figure_1">
  <g id="patch_1">
   <path d="M 0 504 
L 720 504 
L 720 0 
L 0 0 
z
" style="fill:none;"/>
  </g>
  <g id="axes_1">
   <g id="patch_2">
    <path d="M 351.572171 96.597924 
C 319.928557 96.597924 289.058994 106.465852 263.282867 124.82095 
C 237.50674 143.176047 218.085096 169.120327 207.735485 199.023569 
C 197.385873 228.926811 196.614629 261.326056 205.529667 291.687882 
C 214.444705 322.049707 232.609875 348.888718 257.483437 368.449501 
L 351.572171 248.805924 
L 351.572171 96.597924 
z
" style="fill:#4c4000;opacity:0.5;stroke:#4c4000;stroke-linejoin:miter;"/>
   </g>
   <g id="patch_3">
    <path d="M 264.256707 386.609336 
C 269.954146 391.089852 275.96436 395.157681 282.241451 398.781761 
C 288.518543 402.40584 295.046493 405.576922 301.775454 408.270791 
L 358.345441 266.96576 
L 264.256707 386.609336 
z
" style="fill:#2e3e0f;opacity:0.5;stroke:#2e3e0f;stroke-linejoin:miter;"/>
   </g>
   <g id="patch_4">
    <path d="M 324.331593 397.969745 
C 345.153809 406.305701 367.563456 409.937094 389.952605 408.603367 
C 412.341755 407.269639 434.161801 401.003472 453.847122 390.254471 
C 473.532442 379.505471 490.600683 364.537023 503.827171 346.423137 
C 517.053659 328.309251 526.114302 307.493776 530.358986 285.470254 
C 534.60367 263.446733 533.928386 240.754812 528.381586 219.022673 
C 522.834786 197.290534 512.552385 177.050685 498.272162 159.755365 
C 483.991939 142.460046 466.063804 128.533048 445.77413 118.973656 
C 425.484457 109.414263 403.330406 104.456712 380.901566 104.456714 
L 380.901581 256.664714 
L 324.331593 397.969745 
z
" style="fill:#482626;opacity:0.5;stroke:#482626;stroke-linejoin:miter;"/>
   </g>
   <g id="patch_5">
    <path d="M 354.616331 93.553764 
C 322.972717 93.553764 292.103154 103.421692 266.327027 121.77679 
C 240.5509 140.131887 221.129256 166.076167 210.779645 195.979409 
C 200.430033 225.882651 199.658789 258.281896 208.573827 288.643722 
C 217.488865 319.005547 235.654035 345.844558 260.527597 365.405341 
L 354.616331 245.761764 
L 354.616331 93.553764 
z
" style="fill:#ffd700;stroke:#000000;stroke-linejoin:miter;"/>
   </g>
   <g id="patch_6">
    <path d="M 267.300867 383.565176 
C 272.998306 388.045692 279.00852 392.113521 285.285611 395.737601 
C 291.562703 399.36168 298.090653 402.532762 304.819614 405.226631 
L 361.389601 263.9216 
L 267.300867 383.565176 
z
" style="fill:#9acd32;stroke:#000000;stroke-linejoin:miter;"/>
   </g>
   <g id="patch_7">
    <path d="M 327.375753 394.925585 
C 348.197969 403.261541 370.607616 406.892934 392.996765 405.559207 
C 415.385915 404.225479 437.205961 397.959312 456.891282 387.210311 
C 476.576602 376.461311 493.644843 361.492863 506.871331 343.378977 
C 520.097819 325.265091 529.158462 304.449616 533.403146 282.426094 
C 537.64783 260.402573 536.972546 237.710652 531.425746 215.978513 
C 525.878946 194.246374 515.596545 174.006525 501.316322 156.711205 
C 487.036099 139.415886 469.107964 125.488888 448.81829 115.929496 
C 428.528617 106.370103 406.374566 101.412552 383.945726 101.412554 
L 383.945741 253.620554 
L 327.375753 394.925585 
z
" style="fill:#f08080;stroke:#000000;stroke-linejoin:miter;"/>
   </g>
   <g id="matplotlib.axis_1"/>
   <g id="matplotlib.axis_2"/>
   <g id="text_1">
    <!-- PFIZER -->
    <g transform="translate(144.12332 195.140236)scale(0.15 -0.15)">
     <defs>
      <path d="M 19.671875 64.796875 
L 19.671875 37.40625 
L 32.078125 37.40625 
Q 38.96875 37.40625 42.71875 40.96875 
Q 46.484375 44.53125 46.484375 51.125 
Q 46.484375 57.671875 42.71875 61.234375 
Q 38.96875 64.796875 32.078125 64.796875 
z
M 9.8125 72.90625 
L 32.078125 72.90625 
Q 44.34375 72.90625 50.609375 67.359375 
Q 56.890625 61.8125 56.890625 51.125 
Q 56.890625 40.328125 50.609375 34.8125 
Q 44.34375 29.296875 32.078125 29.296875 
L 19.671875 29.296875 
L 19.671875 0 
L 9.8125 0 
z
" id="DejaVuSans-80"/>
      <path d="M 9.8125 72.90625 
L 51.703125 72.90625 
L 51.703125 64.59375 
L 19.671875 64.59375 
L 19.671875 43.109375 
L 48.578125 43.109375 
L 48.578125 34.8125 
L 19.671875 34.8125 
L 19.671875 0 
L 9.8125 0 
z
" id="DejaVuSans-70"/>
      <path d="M 9.8125 72.90625 
L 19.671875 72.90625 
L 19.671875 0 
L 9.8125 0 
z
" id="DejaVuSans-73"/>
      <path d="M 5.609375 72.90625 
L 62.890625 72.90625 
L 62.890625 65.375 
L 16.796875 8.296875 
L 64.015625 8.296875 
L 64.015625 0 
L 4.5 0 
L 4.5 7.515625 
L 50.59375 64.59375 
L 5.609375 64.59375 
z
" id="DejaVuSans-90"/>
      <path d="M 9.8125 72.90625 
L 55.90625 72.90625 
L 55.90625 64.59375 
L 19.671875 64.59375 
L 19.671875 43.015625 
L 54.390625 43.015625 
L 54.390625 34.71875 
L 19.671875 34.71875 
L 19.671875 8.296875 
L 56.78125 8.296875 
L 56.78125 0 
L 9.8125 0 
z
" id="DejaVuSans-69"/>
      <path d="M 44.390625 34.1875 
Q 47.5625 33.109375 50.5625 29.59375 
Q 53.5625 26.078125 56.59375 19.921875 
L 66.609375 0 
L 56 0 
L 46.6875 18.703125 
Q 43.0625 26.03125 39.671875 28.421875 
Q 36.28125 30.8125 30.421875 30.8125 
L 19.671875 30.8125 
L 19.671875 0 
L 9.8125 0 
L 9.8125 72.90625 
L 32.078125 72.90625 
Q 44.578125 72.90625 50.734375 67.671875 
Q 56.890625 62.453125 56.890625 51.90625 
Q 56.890625 45.015625 53.6875 40.46875 
Q 50.484375 35.9375 44.390625 34.1875 
z
M 19.671875 64.796875 
L 19.671875 38.921875 
L 32.078125 38.921875 
Q 39.203125 38.921875 42.84375 42.21875 
Q 46.484375 45.515625 46.484375 51.90625 
Q 46.484375 58.296875 42.84375 61.546875 
Q 39.203125 64.796875 32.078125 64.796875 
z
" id="DejaVuSans-82"/>
     </defs>
     <use xlink:href="#DejaVuSans-80"/>
     <use x="60.302734" xlink:href="#DejaVuSans-70"/>
     <use x="117.822266" xlink:href="#DejaVuSans-73"/>
     <use x="147.314453" xlink:href="#DejaVuSans-90"/>
     <use x="215.820312" xlink:href="#DejaVuSans-69"/>
     <use x="279.003906" xlink:href="#DejaVuSans-82"/>
    </g>
   </g>
   <g id="text_2">
    <!-- 39.4% -->
    <g transform="translate(247.499007 212.484914)scale(0.12 -0.12)">
     <defs>
      <path d="M 46.578125 39.3125 
Q 53.953125 37.40625 57.78125 32.6875 
Q 61.625 27.984375 61.625 20.703125 
Q 61.625 9.859375 53.3125 4.21875 
Q 45.015625 -1.421875 29.109375 -1.421875 
Q 23.484375 -1.421875 17.84375 -0.515625 
Q 12.203125 0.390625 6.6875 2.203125 
L 6.6875 16.703125 
Q 11.96875 14.0625 17.15625 12.71875 
Q 22.359375 11.375 27.390625 11.375 
Q 34.859375 11.375 38.84375 13.953125 
Q 42.828125 16.546875 42.828125 21.390625 
Q 42.828125 26.375 38.75 28.9375 
Q 34.671875 31.5 26.703125 31.5 
L 19.1875 31.5 
L 19.1875 43.609375 
L 27.09375 43.609375 
Q 34.1875 43.609375 37.640625 45.828125 
Q 41.109375 48.046875 41.109375 52.59375 
Q 41.109375 56.78125 37.734375 59.078125 
Q 34.375 61.375 28.21875 61.375 
Q 23.6875 61.375 19.046875 60.34375 
Q 14.40625 59.328125 9.8125 57.328125 
L 9.8125 71.09375 
Q 15.375 72.65625 20.84375 73.4375 
Q 26.3125 74.21875 31.59375 74.21875 
Q 45.796875 74.21875 52.84375 69.546875 
Q 59.90625 64.890625 59.90625 55.515625 
Q 59.90625 49.125 56.53125 45.046875 
Q 53.171875 40.96875 46.578125 39.3125 
z
" id="DejaVuSans-Bold-51"/>
      <path d="M 10.015625 1.609375 
L 10.015625 15.09375 
Q 14.5 12.984375 18.59375 11.9375 
Q 22.703125 10.890625 26.703125 10.890625 
Q 35.109375 10.890625 39.796875 15.546875 
Q 44.484375 20.21875 45.3125 29.390625 
Q 42 26.953125 38.234375 25.734375 
Q 34.46875 24.515625 30.078125 24.515625 
Q 18.890625 24.515625 12.03125 31.03125 
Q 5.171875 37.546875 5.171875 48.1875 
Q 5.171875 59.96875 12.8125 67.046875 
Q 20.453125 74.125 33.296875 74.125 
Q 47.5625 74.125 55.375 64.5 
Q 63.1875 54.890625 63.1875 37.3125 
Q 63.1875 19.234375 54.046875 8.90625 
Q 44.921875 -1.421875 29 -1.421875 
Q 23.875 -1.421875 19.1875 -0.65625 
Q 14.5 0.09375 10.015625 1.609375 
z
M 33.203125 36.71875 
Q 38.140625 36.71875 40.625 39.90625 
Q 43.109375 43.109375 43.109375 49.515625 
Q 43.109375 55.859375 40.625 59.078125 
Q 38.140625 62.3125 33.203125 62.3125 
Q 28.265625 62.3125 25.78125 59.078125 
Q 23.296875 55.859375 23.296875 49.515625 
Q 23.296875 43.109375 25.78125 39.90625 
Q 28.265625 36.71875 33.203125 36.71875 
z
" id="DejaVuSans-Bold-57"/>
      <path d="M 10.203125 18.890625 
L 27.78125 18.890625 
L 27.78125 0 
L 10.203125 0 
z
" id="DejaVuSans-Bold-46"/>
      <path d="M 36.8125 57.421875 
L 16.21875 26.90625 
L 36.8125 26.90625 
z
M 33.6875 72.90625 
L 54.59375 72.90625 
L 54.59375 26.90625 
L 64.984375 26.90625 
L 64.984375 13.28125 
L 54.59375 13.28125 
L 54.59375 0 
L 36.8125 0 
L 36.8125 13.28125 
L 4.5 13.28125 
L 4.5 29.390625 
z
" id="DejaVuSans-Bold-52"/>
      <path d="M 77.484375 30.078125 
Q 74.03125 30.078125 72.125 27.078125 
Q 70.21875 24.078125 70.21875 18.5 
Q 70.21875 12.890625 72.09375 9.890625 
Q 73.96875 6.890625 77.484375 6.890625 
Q 81 6.890625 82.859375 9.890625 
Q 84.71875 12.890625 84.71875 18.5 
Q 84.71875 24.078125 82.828125 27.078125 
Q 80.953125 30.078125 77.484375 30.078125 
z
M 77.484375 38.28125 
Q 86.578125 38.28125 91.796875 33 
Q 97.015625 27.734375 97.015625 18.5 
Q 97.015625 9.28125 91.796875 3.921875 
Q 86.578125 -1.421875 77.484375 -1.421875 
Q 68.40625 -1.421875 63.15625 3.921875 
Q 57.90625 9.28125 57.90625 18.5 
Q 57.90625 27.6875 63.15625 32.984375 
Q 68.40625 38.28125 77.484375 38.28125 
z
M 32.71875 -1.421875 
L 21.921875 -1.421875 
L 67.484375 74.21875 
L 78.328125 74.21875 
z
M 22.703125 74.21875 
Q 31.78125 74.21875 36.984375 68.921875 
Q 42.1875 63.625 42.1875 54.390625 
Q 42.1875 45.171875 36.984375 39.84375 
Q 31.78125 34.515625 22.703125 34.515625 
Q 13.625 34.515625 8.421875 39.84375 
Q 3.21875 45.171875 3.21875 54.390625 
Q 3.21875 63.625 8.421875 68.921875 
Q 13.625 74.21875 22.703125 74.21875 
z
M 22.703125 66.015625 
Q 19.1875 66.015625 17.28125 62.984375 
Q 15.375 59.96875 15.375 54.390625 
Q 15.375 48.78125 17.28125 45.71875 
Q 19.1875 42.671875 22.703125 42.671875 
Q 26.21875 42.671875 28.09375 45.71875 
Q 29.984375 48.78125 29.984375 54.390625 
Q 29.984375 59.96875 28.078125 62.984375 
Q 26.171875 66.015625 22.703125 66.015625 
z
" id="DejaVuSans-Bold-37"/>
     </defs>
     <use xlink:href="#DejaVuSans-Bold-51"/>
     <use x="69.580078" xlink:href="#DejaVuSans-Bold-57"/>
     <use x="139.160156" xlink:href="#DejaVuSans-Bold-46"/>
     <use x="177.148438" xlink:href="#DejaVuSans-Bold-52"/>
     <use x="246.728516" xlink:href="#DejaVuSans-Bold-37"/>
    </g>
    <!-- (n= 26 ) -->
    <g transform="translate(241.004007 225.922289)scale(0.12 -0.12)">
     <defs>
      <path d="M 37.703125 -13.1875 
L 23.1875 -13.1875 
Q 15.71875 -1.125 12.15625 9.734375 
Q 8.59375 20.609375 8.59375 31.296875 
Q 8.59375 42 12.171875 52.953125 
Q 15.765625 63.921875 23.1875 75.875 
L 37.703125 75.875 
Q 31.453125 64.3125 28.328125 53.25 
Q 25.203125 42.1875 25.203125 31.390625 
Q 25.203125 20.609375 28.296875 9.515625 
Q 31.390625 -1.5625 37.703125 -13.1875 
z
" id="DejaVuSans-Bold-40"/>
      <path d="M 63.375 33.296875 
L 63.375 0 
L 45.796875 0 
L 45.796875 5.421875 
L 45.796875 25.484375 
Q 45.796875 32.5625 45.484375 35.25 
Q 45.171875 37.9375 44.390625 39.203125 
Q 43.359375 40.921875 41.59375 41.875 
Q 39.84375 42.828125 37.59375 42.828125 
Q 32.125 42.828125 29 38.59375 
Q 25.875 34.375 25.875 26.90625 
L 25.875 0 
L 8.40625 0 
L 8.40625 54.6875 
L 25.875 54.6875 
L 25.875 46.6875 
Q 29.828125 51.46875 34.265625 53.734375 
Q 38.71875 56 44.09375 56 
Q 53.5625 56 58.46875 50.1875 
Q 63.375 44.390625 63.375 33.296875 
z
" id="DejaVuSans-Bold-110"/>
      <path d="M 10.59375 48.1875 
L 73.1875 48.1875 
L 73.1875 36.71875 
L 10.59375 36.71875 
z
M 10.59375 25.984375 
L 73.1875 25.984375 
L 73.1875 14.40625 
L 10.59375 14.40625 
z
" id="DejaVuSans-Bold-61"/>
      <path id="DejaVuSans-Bold-32"/>
      <path d="M 28.8125 13.8125 
L 60.890625 13.8125 
L 60.890625 0 
L 7.90625 0 
L 7.90625 13.8125 
L 34.515625 37.3125 
Q 38.09375 40.53125 39.796875 43.609375 
Q 41.5 46.6875 41.5 50 
Q 41.5 55.125 38.0625 58.25 
Q 34.625 61.375 28.90625 61.375 
Q 24.515625 61.375 19.28125 59.5 
Q 14.0625 57.625 8.109375 53.90625 
L 8.109375 69.921875 
Q 14.453125 72.015625 20.65625 73.109375 
Q 26.859375 74.21875 32.8125 74.21875 
Q 45.90625 74.21875 53.15625 68.453125 
Q 60.40625 62.703125 60.40625 52.390625 
Q 60.40625 46.4375 57.328125 41.28125 
Q 54.25 36.140625 44.390625 27.484375 
z
" id="DejaVuSans-Bold-50"/>
      <path d="M 36.1875 35.984375 
Q 31.25 35.984375 28.78125 32.78125 
Q 26.3125 29.59375 26.3125 23.1875 
Q 26.3125 16.796875 28.78125 13.59375 
Q 31.25 10.40625 36.1875 10.40625 
Q 41.15625 10.40625 43.625 13.59375 
Q 46.09375 16.796875 46.09375 23.1875 
Q 46.09375 29.59375 43.625 32.78125 
Q 41.15625 35.984375 36.1875 35.984375 
z
M 59.421875 71 
L 59.421875 57.515625 
Q 54.78125 59.71875 50.671875 60.765625 
Q 46.578125 61.8125 42.671875 61.8125 
Q 34.28125 61.8125 29.59375 57.140625 
Q 24.90625 52.484375 24.125 43.3125 
Q 27.34375 45.703125 31.09375 46.890625 
Q 34.859375 48.09375 39.3125 48.09375 
Q 50.484375 48.09375 57.34375 41.546875 
Q 64.203125 35.015625 64.203125 24.421875 
Q 64.203125 12.703125 56.53125 5.640625 
Q 48.875 -1.421875 35.984375 -1.421875 
Q 21.78125 -1.421875 13.984375 8.171875 
Q 6.203125 17.78125 6.203125 35.40625 
Q 6.203125 53.46875 15.3125 63.796875 
Q 24.421875 74.125 40.28125 74.125 
Q 45.3125 74.125 50.046875 73.34375 
Q 54.78125 72.5625 59.421875 71 
z
" id="DejaVuSans-Bold-54"/>
      <path d="M 8.015625 -13.1875 
Q 14.265625 -1.5625 17.390625 9.515625 
Q 20.515625 20.609375 20.515625 31.390625 
Q 20.515625 42.1875 17.390625 53.25 
Q 14.265625 64.3125 8.015625 75.875 
L 22.515625 75.875 
Q 29.9375 63.921875 33.515625 52.953125 
Q 37.109375 42 37.109375 31.296875 
Q 37.109375 20.609375 33.546875 9.734375 
Q 29.984375 -1.125 22.515625 -13.1875 
z
" id="DejaVuSans-Bold-41"/>
     </defs>
     <use xlink:href="#DejaVuSans-Bold-40"/>
     <use x="45.703125" xlink:href="#DejaVuSans-Bold-110"/>
     <use x="116.894531" xlink:href="#DejaVuSans-Bold-61"/>
     <use x="200.683594" xlink:href="#DejaVuSans-Bold-32"/>
     <use x="235.498047" xlink:href="#DejaVuSans-Bold-50"/>
     <use x="305.078125" xlink:href="#DejaVuSans-Bold-54"/>
     <use x="374.658203" xlink:href="#DejaVuSans-Bold-32"/>
     <use x="409.472656" xlink:href="#DejaVuSans-Bold-41"/>
    </g>
   </g>
   <g id="text_3">
    <!-- MODERNA -->
    <g transform="translate(199.991619 413.058263)scale(0.15 -0.15)">
     <defs>
      <path d="M 9.8125 72.90625 
L 24.515625 72.90625 
L 43.109375 23.296875 
L 61.8125 72.90625 
L 76.515625 72.90625 
L 76.515625 0 
L 66.890625 0 
L 66.890625 64.015625 
L 48.09375 14.015625 
L 38.1875 14.015625 
L 19.390625 64.015625 
L 19.390625 0 
L 9.8125 0 
z
" id="DejaVuSans-77"/>
      <path d="M 39.40625 66.21875 
Q 28.65625 66.21875 22.328125 58.203125 
Q 16.015625 50.203125 16.015625 36.375 
Q 16.015625 22.609375 22.328125 14.59375 
Q 28.65625 6.59375 39.40625 6.59375 
Q 50.140625 6.59375 56.421875 14.59375 
Q 62.703125 22.609375 62.703125 36.375 
Q 62.703125 50.203125 56.421875 58.203125 
Q 50.140625 66.21875 39.40625 66.21875 
z
M 39.40625 74.21875 
Q 54.734375 74.21875 63.90625 63.9375 
Q 73.09375 53.65625 73.09375 36.375 
Q 73.09375 19.140625 63.90625 8.859375 
Q 54.734375 -1.421875 39.40625 -1.421875 
Q 24.03125 -1.421875 14.8125 8.828125 
Q 5.609375 19.09375 5.609375 36.375 
Q 5.609375 53.65625 14.8125 63.9375 
Q 24.03125 74.21875 39.40625 74.21875 
z
" id="DejaVuSans-79"/>
      <path d="M 19.671875 64.796875 
L 19.671875 8.109375 
L 31.59375 8.109375 
Q 46.6875 8.109375 53.6875 14.9375 
Q 60.6875 21.78125 60.6875 36.53125 
Q 60.6875 51.171875 53.6875 57.984375 
Q 46.6875 64.796875 31.59375 64.796875 
z
M 9.8125 72.90625 
L 30.078125 72.90625 
Q 51.265625 72.90625 61.171875 64.09375 
Q 71.09375 55.28125 71.09375 36.53125 
Q 71.09375 17.671875 61.125 8.828125 
Q 51.171875 0 30.078125 0 
L 9.8125 0 
z
" id="DejaVuSans-68"/>
      <path d="M 9.8125 72.90625 
L 23.09375 72.90625 
L 55.421875 11.921875 
L 55.421875 72.90625 
L 64.984375 72.90625 
L 64.984375 0 
L 51.703125 0 
L 19.390625 60.984375 
L 19.390625 0 
L 9.8125 0 
z
" id="DejaVuSans-78"/>
      <path d="M 34.1875 63.1875 
L 20.796875 26.90625 
L 47.609375 26.90625 
z
M 28.609375 72.90625 
L 39.796875 72.90625 
L 67.578125 0 
L 57.328125 0 
L 50.6875 18.703125 
L 17.828125 18.703125 
L 11.1875 0 
L 0.78125 0 
z
" id="DejaVuSans-65"/>
     </defs>
     <use xlink:href="#DejaVuSans-77"/>
     <use x="86.279297" xlink:href="#DejaVuSans-79"/>
     <use x="164.990234" xlink:href="#DejaVuSans-68"/>
     <use x="241.992188" xlink:href="#DejaVuSans-69"/>
     <use x="305.175781" xlink:href="#DejaVuSans-82"/>
     <use x="374.658203" xlink:href="#DejaVuSans-78"/>
     <use x="449.462891" xlink:href="#DejaVuSans-65"/>
    </g>
   </g>
   <g id="text_4">
    <!-- 4.5% -->
    <g transform="translate(299.086582 339.603763)scale(0.12 -0.12)">
     <defs>
      <path d="M 10.59375 72.90625 
L 57.328125 72.90625 
L 57.328125 59.078125 
L 25.59375 59.078125 
L 25.59375 47.796875 
Q 27.734375 48.390625 29.90625 48.703125 
Q 32.078125 49.03125 34.421875 49.03125 
Q 47.75 49.03125 55.171875 42.359375 
Q 62.59375 35.6875 62.59375 23.78125 
Q 62.59375 11.96875 54.515625 5.265625 
Q 46.4375 -1.421875 32.078125 -1.421875 
Q 25.875 -1.421875 19.796875 -0.21875 
Q 13.71875 0.984375 7.71875 3.421875 
L 7.71875 18.21875 
Q 13.671875 14.796875 19.015625 13.078125 
Q 24.359375 11.375 29.109375 11.375 
Q 35.9375 11.375 39.859375 14.71875 
Q 43.796875 18.0625 43.796875 23.78125 
Q 43.796875 29.546875 39.859375 32.859375 
Q 35.9375 36.1875 29.109375 36.1875 
Q 25.046875 36.1875 20.453125 35.125 
Q 15.875 34.078125 10.59375 31.890625 
z
" id="DejaVuSans-Bold-53"/>
     </defs>
     <use xlink:href="#DejaVuSans-Bold-52"/>
     <use x="69.580078" xlink:href="#DejaVuSans-Bold-46"/>
     <use x="107.568359" xlink:href="#DejaVuSans-Bold-53"/>
     <use x="177.148438" xlink:href="#DejaVuSans-Bold-37"/>
    </g>
    <!-- (n= 3 ) -->
    <g transform="translate(292.591582 353.041138)scale(0.12 -0.12)">
     <use xlink:href="#DejaVuSans-Bold-40"/>
     <use x="45.703125" xlink:href="#DejaVuSans-Bold-110"/>
     <use x="116.894531" xlink:href="#DejaVuSans-Bold-61"/>
     <use x="200.683594" xlink:href="#DejaVuSans-Bold-32"/>
     <use x="235.498047" xlink:href="#DejaVuSans-Bold-51"/>
     <use x="305.078125" xlink:href="#DejaVuSans-Bold-32"/>
     <use x="339.892578" xlink:href="#DejaVuSans-Bold-41"/>
    </g>
   </g>
   <g id="text_5">
    <!-- ASTRA SE NECA -->
    <g transform="translate(548.348887 289.445711)scale(0.15 -0.15)">
     <defs>
      <path d="M 53.515625 70.515625 
L 53.515625 60.890625 
Q 47.90625 63.578125 42.921875 64.890625 
Q 37.9375 66.21875 33.296875 66.21875 
Q 25.25 66.21875 20.875 63.09375 
Q 16.5 59.96875 16.5 54.203125 
Q 16.5 49.359375 19.40625 46.890625 
Q 22.3125 44.4375 30.421875 42.921875 
L 36.375 41.703125 
Q 47.40625 39.59375 52.65625 34.296875 
Q 57.90625 29 57.90625 20.125 
Q 57.90625 9.515625 50.796875 4.046875 
Q 43.703125 -1.421875 29.984375 -1.421875 
Q 24.8125 -1.421875 18.96875 -0.25 
Q 13.140625 0.921875 6.890625 3.21875 
L 6.890625 13.375 
Q 12.890625 10.015625 18.65625 8.296875 
Q 24.421875 6.59375 29.984375 6.59375 
Q 38.421875 6.59375 43.015625 9.90625 
Q 47.609375 13.234375 47.609375 19.390625 
Q 47.609375 24.75 44.3125 27.78125 
Q 41.015625 30.8125 33.5 32.328125 
L 27.484375 33.5 
Q 16.453125 35.6875 11.515625 40.375 
Q 6.59375 45.0625 6.59375 53.421875 
Q 6.59375 63.09375 13.40625 68.65625 
Q 20.21875 74.21875 32.171875 74.21875 
Q 37.3125 74.21875 42.625 73.28125 
Q 47.953125 72.359375 53.515625 70.515625 
z
" id="DejaVuSans-83"/>
      <path d="M -0.296875 72.90625 
L 61.375 72.90625 
L 61.375 64.59375 
L 35.5 64.59375 
L 35.5 0 
L 25.59375 0 
L 25.59375 64.59375 
L -0.296875 64.59375 
z
" id="DejaVuSans-84"/>
      <path id="DejaVuSans-32"/>
      <path d="M 64.40625 67.28125 
L 64.40625 56.890625 
Q 59.421875 61.53125 53.78125 63.8125 
Q 48.140625 66.109375 41.796875 66.109375 
Q 29.296875 66.109375 22.65625 58.46875 
Q 16.015625 50.828125 16.015625 36.375 
Q 16.015625 21.96875 22.65625 14.328125 
Q 29.296875 6.6875 41.796875 6.6875 
Q 48.140625 6.6875 53.78125 8.984375 
Q 59.421875 11.28125 64.40625 15.921875 
L 64.40625 5.609375 
Q 59.234375 2.09375 53.4375 0.328125 
Q 47.65625 -1.421875 41.21875 -1.421875 
Q 24.65625 -1.421875 15.125 8.703125 
Q 5.609375 18.84375 5.609375 36.375 
Q 5.609375 53.953125 15.125 64.078125 
Q 24.65625 74.21875 41.21875 74.21875 
Q 47.75 74.21875 53.53125 72.484375 
Q 59.328125 70.75 64.40625 67.28125 
z
" id="DejaVuSans-67"/>
     </defs>
     <use xlink:href="#DejaVuSans-65"/>
     <use x="68.408203" xlink:href="#DejaVuSans-83"/>
     <use x="131.884766" xlink:href="#DejaVuSans-84"/>
     <use x="192.96875" xlink:href="#DejaVuSans-82"/>
     <use x="258.451172" xlink:href="#DejaVuSans-65"/>
     <use x="326.859375" xlink:href="#DejaVuSans-32"/>
     <use x="358.646484" xlink:href="#DejaVuSans-83"/>
     <use x="422.123047" xlink:href="#DejaVuSans-69"/>
     <use x="485.306641" xlink:href="#DejaVuSans-32"/>
     <use x="517.09375" xlink:href="#DejaVuSans-78"/>
     <use x="591.898438" xlink:href="#DejaVuSans-69"/>
     <use x="655.082031" xlink:href="#DejaVuSans-67"/>
     <use x="724.90625" xlink:href="#DejaVuSans-65"/>
    </g>
   </g>
   <g id="text_6">
    <!-- 56.1% -->
    <g transform="translate(452.804871 267.496441)scale(0.12 -0.12)">
     <defs>
      <path d="M 11.71875 12.984375 
L 28.328125 12.984375 
L 28.328125 60.109375 
L 11.28125 56.59375 
L 11.28125 69.390625 
L 28.21875 72.90625 
L 46.09375 72.90625 
L 46.09375 12.984375 
L 62.703125 12.984375 
L 62.703125 0 
L 11.71875 0 
z
" id="DejaVuSans-Bold-49"/>
     </defs>
     <use xlink:href="#DejaVuSans-Bold-53"/>
     <use x="69.580078" xlink:href="#DejaVuSans-Bold-54"/>
     <use x="139.160156" xlink:href="#DejaVuSans-Bold-46"/>
     <use x="177.148438" xlink:href="#DejaVuSans-Bold-49"/>
     <use x="246.728516" xlink:href="#DejaVuSans-Bold-37"/>
    </g>
    <!-- (n= 37 ) -->
    <g transform="translate(446.309871 280.933816)scale(0.12 -0.12)">
     <defs>
      <path d="M 6.6875 72.90625 
L 61.625 72.90625 
L 61.625 62.3125 
L 33.203125 0 
L 14.890625 0 
L 41.796875 59.078125 
L 6.6875 59.078125 
z
" id="DejaVuSans-Bold-55"/>
     </defs>
     <use xlink:href="#DejaVuSans-Bold-40"/>
     <use x="45.703125" xlink:href="#DejaVuSans-Bold-110"/>
     <use x="116.894531" xlink:href="#DejaVuSans-Bold-61"/>
     <use x="200.683594" xlink:href="#DejaVuSans-Bold-32"/>
     <use x="235.498047" xlink:href="#DejaVuSans-Bold-51"/>
     <use x="305.078125" xlink:href="#DejaVuSans-Bold-55"/>
     <use x="374.658203" xlink:href="#DejaVuSans-Bold-32"/>
     <use x="409.472656" xlink:href="#DejaVuSans-Bold-41"/>
    </g>
   </g>
   <g id="text_7">
    <!-- Welche Suppe hat die meisten schweren Nebenwirkungen bei Kindern und Jugendlichen? -->
    <g transform="translate(101.280937 54.48)scale(0.12 -0.12)">
     <defs>
      <path d="M 3.328125 72.90625 
L 13.28125 72.90625 
L 28.609375 11.28125 
L 43.890625 72.90625 
L 54.984375 72.90625 
L 70.3125 11.28125 
L 85.59375 72.90625 
L 95.609375 72.90625 
L 77.296875 0 
L 64.890625 0 
L 49.515625 63.28125 
L 33.984375 0 
L 21.578125 0 
z
" id="DejaVuSans-87"/>
      <path d="M 56.203125 29.59375 
L 56.203125 25.203125 
L 14.890625 25.203125 
Q 15.484375 15.921875 20.484375 11.0625 
Q 25.484375 6.203125 34.421875 6.203125 
Q 39.59375 6.203125 44.453125 7.46875 
Q 49.3125 8.734375 54.109375 11.28125 
L 54.109375 2.78125 
Q 49.265625 0.734375 44.1875 -0.34375 
Q 39.109375 -1.421875 33.890625 -1.421875 
Q 20.796875 -1.421875 13.15625 6.1875 
Q 5.515625 13.8125 5.515625 26.8125 
Q 5.515625 40.234375 12.765625 48.109375 
Q 20.015625 56 32.328125 56 
Q 43.359375 56 49.78125 48.890625 
Q 56.203125 41.796875 56.203125 29.59375 
z
M 47.21875 32.234375 
Q 47.125 39.59375 43.09375 43.984375 
Q 39.0625 48.390625 32.421875 48.390625 
Q 24.90625 48.390625 20.390625 44.140625 
Q 15.875 39.890625 15.1875 32.171875 
z
" id="DejaVuSans-101"/>
      <path d="M 9.421875 75.984375 
L 18.40625 75.984375 
L 18.40625 0 
L 9.421875 0 
z
" id="DejaVuSans-108"/>
      <path d="M 48.78125 52.59375 
L 48.78125 44.1875 
Q 44.96875 46.296875 41.140625 47.34375 
Q 37.3125 48.390625 33.40625 48.390625 
Q 24.65625 48.390625 19.8125 42.84375 
Q 14.984375 37.3125 14.984375 27.296875 
Q 14.984375 17.28125 19.8125 11.734375 
Q 24.65625 6.203125 33.40625 6.203125 
Q 37.3125 6.203125 41.140625 7.25 
Q 44.96875 8.296875 48.78125 10.40625 
L 48.78125 2.09375 
Q 45.015625 0.34375 40.984375 -0.53125 
Q 36.96875 -1.421875 32.421875 -1.421875 
Q 20.0625 -1.421875 12.78125 6.34375 
Q 5.515625 14.109375 5.515625 27.296875 
Q 5.515625 40.671875 12.859375 48.328125 
Q 20.21875 56 33.015625 56 
Q 37.15625 56 41.109375 55.140625 
Q 45.0625 54.296875 48.78125 52.59375 
z
" id="DejaVuSans-99"/>
      <path d="M 54.890625 33.015625 
L 54.890625 0 
L 45.90625 0 
L 45.90625 32.71875 
Q 45.90625 40.484375 42.875 44.328125 
Q 39.84375 48.1875 33.796875 48.1875 
Q 26.515625 48.1875 22.3125 43.546875 
Q 18.109375 38.921875 18.109375 30.90625 
L 18.109375 0 
L 9.078125 0 
L 9.078125 75.984375 
L 18.109375 75.984375 
L 18.109375 46.1875 
Q 21.34375 51.125 25.703125 53.5625 
Q 30.078125 56 35.796875 56 
Q 45.21875 56 50.046875 50.171875 
Q 54.890625 44.34375 54.890625 33.015625 
z
" id="DejaVuSans-104"/>
      <path d="M 8.5 21.578125 
L 8.5 54.6875 
L 17.484375 54.6875 
L 17.484375 21.921875 
Q 17.484375 14.15625 20.5 10.265625 
Q 23.53125 6.390625 29.59375 6.390625 
Q 36.859375 6.390625 41.078125 11.03125 
Q 45.3125 15.671875 45.3125 23.6875 
L 45.3125 54.6875 
L 54.296875 54.6875 
L 54.296875 0 
L 45.3125 0 
L 45.3125 8.40625 
Q 42.046875 3.421875 37.71875 1 
Q 33.40625 -1.421875 27.6875 -1.421875 
Q 18.265625 -1.421875 13.375 4.4375 
Q 8.5 10.296875 8.5 21.578125 
z
M 31.109375 56 
z
" id="DejaVuSans-117"/>
      <path d="M 18.109375 8.203125 
L 18.109375 -20.796875 
L 9.078125 -20.796875 
L 9.078125 54.6875 
L 18.109375 54.6875 
L 18.109375 46.390625 
Q 20.953125 51.265625 25.265625 53.625 
Q 29.59375 56 35.59375 56 
Q 45.5625 56 51.78125 48.09375 
Q 58.015625 40.1875 58.015625 27.296875 
Q 58.015625 14.40625 51.78125 6.484375 
Q 45.5625 -1.421875 35.59375 -1.421875 
Q 29.59375 -1.421875 25.265625 0.953125 
Q 20.953125 3.328125 18.109375 8.203125 
z
M 48.6875 27.296875 
Q 48.6875 37.203125 44.609375 42.84375 
Q 40.53125 48.484375 33.40625 48.484375 
Q 26.265625 48.484375 22.1875 42.84375 
Q 18.109375 37.203125 18.109375 27.296875 
Q 18.109375 17.390625 22.1875 11.75 
Q 26.265625 6.109375 33.40625 6.109375 
Q 40.53125 6.109375 44.609375 11.75 
Q 48.6875 17.390625 48.6875 27.296875 
z
" id="DejaVuSans-112"/>
      <path d="M 34.28125 27.484375 
Q 23.390625 27.484375 19.1875 25 
Q 14.984375 22.515625 14.984375 16.5 
Q 14.984375 11.71875 18.140625 8.90625 
Q 21.296875 6.109375 26.703125 6.109375 
Q 34.1875 6.109375 38.703125 11.40625 
Q 43.21875 16.703125 43.21875 25.484375 
L 43.21875 27.484375 
z
M 52.203125 31.203125 
L 52.203125 0 
L 43.21875 0 
L 43.21875 8.296875 
Q 40.140625 3.328125 35.546875 0.953125 
Q 30.953125 -1.421875 24.3125 -1.421875 
Q 15.921875 -1.421875 10.953125 3.296875 
Q 6 8.015625 6 15.921875 
Q 6 25.140625 12.171875 29.828125 
Q 18.359375 34.515625 30.609375 34.515625 
L 43.21875 34.515625 
L 43.21875 35.40625 
Q 43.21875 41.609375 39.140625 45 
Q 35.0625 48.390625 27.6875 48.390625 
Q 23 48.390625 18.546875 47.265625 
Q 14.109375 46.140625 10.015625 43.890625 
L 10.015625 52.203125 
Q 14.9375 54.109375 19.578125 55.046875 
Q 24.21875 56 28.609375 56 
Q 40.484375 56 46.34375 49.84375 
Q 52.203125 43.703125 52.203125 31.203125 
z
" id="DejaVuSans-97"/>
      <path d="M 18.3125 70.21875 
L 18.3125 54.6875 
L 36.8125 54.6875 
L 36.8125 47.703125 
L 18.3125 47.703125 
L 18.3125 18.015625 
Q 18.3125 11.328125 20.140625 9.421875 
Q 21.96875 7.515625 27.59375 7.515625 
L 36.8125 7.515625 
L 36.8125 0 
L 27.59375 0 
Q 17.1875 0 13.234375 3.875 
Q 9.28125 7.765625 9.28125 18.015625 
L 9.28125 47.703125 
L 2.6875 47.703125 
L 2.6875 54.6875 
L 9.28125 54.6875 
L 9.28125 70.21875 
z
" id="DejaVuSans-116"/>
      <path d="M 45.40625 46.390625 
L 45.40625 75.984375 
L 54.390625 75.984375 
L 54.390625 0 
L 45.40625 0 
L 45.40625 8.203125 
Q 42.578125 3.328125 38.25 0.953125 
Q 33.9375 -1.421875 27.875 -1.421875 
Q 17.96875 -1.421875 11.734375 6.484375 
Q 5.515625 14.40625 5.515625 27.296875 
Q 5.515625 40.1875 11.734375 48.09375 
Q 17.96875 56 27.875 56 
Q 33.9375 56 38.25 53.625 
Q 42.578125 51.265625 45.40625 46.390625 
z
M 14.796875 27.296875 
Q 14.796875 17.390625 18.875 11.75 
Q 22.953125 6.109375 30.078125 6.109375 
Q 37.203125 6.109375 41.296875 11.75 
Q 45.40625 17.390625 45.40625 27.296875 
Q 45.40625 37.203125 41.296875 42.84375 
Q 37.203125 48.484375 30.078125 48.484375 
Q 22.953125 48.484375 18.875 42.84375 
Q 14.796875 37.203125 14.796875 27.296875 
z
" id="DejaVuSans-100"/>
      <path d="M 9.421875 54.6875 
L 18.40625 54.6875 
L 18.40625 0 
L 9.421875 0 
z
M 9.421875 75.984375 
L 18.40625 75.984375 
L 18.40625 64.59375 
L 9.421875 64.59375 
z
" id="DejaVuSans-105"/>
      <path d="M 52 44.1875 
Q 55.375 50.25 60.0625 53.125 
Q 64.75 56 71.09375 56 
Q 79.640625 56 84.28125 50.015625 
Q 88.921875 44.046875 88.921875 33.015625 
L 88.921875 0 
L 79.890625 0 
L 79.890625 32.71875 
Q 79.890625 40.578125 77.09375 44.375 
Q 74.3125 48.1875 68.609375 48.1875 
Q 61.625 48.1875 57.5625 43.546875 
Q 53.515625 38.921875 53.515625 30.90625 
L 53.515625 0 
L 44.484375 0 
L 44.484375 32.71875 
Q 44.484375 40.625 41.703125 44.40625 
Q 38.921875 48.1875 33.109375 48.1875 
Q 26.21875 48.1875 22.15625 43.53125 
Q 18.109375 38.875 18.109375 30.90625 
L 18.109375 0 
L 9.078125 0 
L 9.078125 54.6875 
L 18.109375 54.6875 
L 18.109375 46.1875 
Q 21.1875 51.21875 25.484375 53.609375 
Q 29.78125 56 35.6875 56 
Q 41.65625 56 45.828125 52.96875 
Q 50 49.953125 52 44.1875 
z
" id="DejaVuSans-109"/>
      <path d="M 44.28125 53.078125 
L 44.28125 44.578125 
Q 40.484375 46.53125 36.375 47.5 
Q 32.28125 48.484375 27.875 48.484375 
Q 21.1875 48.484375 17.84375 46.4375 
Q 14.5 44.390625 14.5 40.28125 
Q 14.5 37.15625 16.890625 35.375 
Q 19.28125 33.59375 26.515625 31.984375 
L 29.59375 31.296875 
Q 39.15625 29.25 43.1875 25.515625 
Q 47.21875 21.78125 47.21875 15.09375 
Q 47.21875 7.46875 41.1875 3.015625 
Q 35.15625 -1.421875 24.609375 -1.421875 
Q 20.21875 -1.421875 15.453125 -0.5625 
Q 10.6875 0.296875 5.421875 2 
L 5.421875 11.28125 
Q 10.40625 8.6875 15.234375 7.390625 
Q 20.0625 6.109375 24.8125 6.109375 
Q 31.15625 6.109375 34.5625 8.28125 
Q 37.984375 10.453125 37.984375 14.40625 
Q 37.984375 18.0625 35.515625 20.015625 
Q 33.0625 21.96875 24.703125 23.78125 
L 21.578125 24.515625 
Q 13.234375 26.265625 9.515625 29.90625 
Q 5.8125 33.546875 5.8125 39.890625 
Q 5.8125 47.609375 11.28125 51.796875 
Q 16.75 56 26.8125 56 
Q 31.78125 56 36.171875 55.265625 
Q 40.578125 54.546875 44.28125 53.078125 
z
" id="DejaVuSans-115"/>
      <path d="M 54.890625 33.015625 
L 54.890625 0 
L 45.90625 0 
L 45.90625 32.71875 
Q 45.90625 40.484375 42.875 44.328125 
Q 39.84375 48.1875 33.796875 48.1875 
Q 26.515625 48.1875 22.3125 43.546875 
Q 18.109375 38.921875 18.109375 30.90625 
L 18.109375 0 
L 9.078125 0 
L 9.078125 54.6875 
L 18.109375 54.6875 
L 18.109375 46.1875 
Q 21.34375 51.125 25.703125 53.5625 
Q 30.078125 56 35.796875 56 
Q 45.21875 56 50.046875 50.171875 
Q 54.890625 44.34375 54.890625 33.015625 
z
" id="DejaVuSans-110"/>
      <path d="M 4.203125 54.6875 
L 13.1875 54.6875 
L 24.421875 12.015625 
L 35.59375 54.6875 
L 46.1875 54.6875 
L 57.421875 12.015625 
L 68.609375 54.6875 
L 77.59375 54.6875 
L 63.28125 0 
L 52.6875 0 
L 40.921875 44.828125 
L 29.109375 0 
L 18.5 0 
z
" id="DejaVuSans-119"/>
      <path d="M 41.109375 46.296875 
Q 39.59375 47.171875 37.8125 47.578125 
Q 36.03125 48 33.890625 48 
Q 26.265625 48 22.1875 43.046875 
Q 18.109375 38.09375 18.109375 28.8125 
L 18.109375 0 
L 9.078125 0 
L 9.078125 54.6875 
L 18.109375 54.6875 
L 18.109375 46.1875 
Q 20.953125 51.171875 25.484375 53.578125 
Q 30.03125 56 36.53125 56 
Q 37.453125 56 38.578125 55.875 
Q 39.703125 55.765625 41.0625 55.515625 
z
" id="DejaVuSans-114"/>
      <path d="M 48.6875 27.296875 
Q 48.6875 37.203125 44.609375 42.84375 
Q 40.53125 48.484375 33.40625 48.484375 
Q 26.265625 48.484375 22.1875 42.84375 
Q 18.109375 37.203125 18.109375 27.296875 
Q 18.109375 17.390625 22.1875 11.75 
Q 26.265625 6.109375 33.40625 6.109375 
Q 40.53125 6.109375 44.609375 11.75 
Q 48.6875 17.390625 48.6875 27.296875 
z
M 18.109375 46.390625 
Q 20.953125 51.265625 25.265625 53.625 
Q 29.59375 56 35.59375 56 
Q 45.5625 56 51.78125 48.09375 
Q 58.015625 40.1875 58.015625 27.296875 
Q 58.015625 14.40625 51.78125 6.484375 
Q 45.5625 -1.421875 35.59375 -1.421875 
Q 29.59375 -1.421875 25.265625 0.953125 
Q 20.953125 3.328125 18.109375 8.203125 
L 18.109375 0 
L 9.078125 0 
L 9.078125 75.984375 
L 18.109375 75.984375 
z
" id="DejaVuSans-98"/>
      <path d="M 9.078125 75.984375 
L 18.109375 75.984375 
L 18.109375 31.109375 
L 44.921875 54.6875 
L 56.390625 54.6875 
L 27.390625 29.109375 
L 57.625 0 
L 45.90625 0 
L 18.109375 26.703125 
L 18.109375 0 
L 9.078125 0 
z
" id="DejaVuSans-107"/>
      <path d="M 45.40625 27.984375 
Q 45.40625 37.75 41.375 43.109375 
Q 37.359375 48.484375 30.078125 48.484375 
Q 22.859375 48.484375 18.828125 43.109375 
Q 14.796875 37.75 14.796875 27.984375 
Q 14.796875 18.265625 18.828125 12.890625 
Q 22.859375 7.515625 30.078125 7.515625 
Q 37.359375 7.515625 41.375 12.890625 
Q 45.40625 18.265625 45.40625 27.984375 
z
M 54.390625 6.78125 
Q 54.390625 -7.171875 48.1875 -13.984375 
Q 42 -20.796875 29.203125 -20.796875 
Q 24.46875 -20.796875 20.265625 -20.09375 
Q 16.0625 -19.390625 12.109375 -17.921875 
L 12.109375 -9.1875 
Q 16.0625 -11.328125 19.921875 -12.34375 
Q 23.78125 -13.375 27.78125 -13.375 
Q 36.625 -13.375 41.015625 -8.765625 
Q 45.40625 -4.15625 45.40625 5.171875 
L 45.40625 9.625 
Q 42.625 4.78125 38.28125 2.390625 
Q 33.9375 0 27.875 0 
Q 17.828125 0 11.671875 7.65625 
Q 5.515625 15.328125 5.515625 27.984375 
Q 5.515625 40.671875 11.671875 48.328125 
Q 17.828125 56 27.875 56 
Q 33.9375 56 38.28125 53.609375 
Q 42.625 51.21875 45.40625 46.390625 
L 45.40625 54.6875 
L 54.390625 54.6875 
z
" id="DejaVuSans-103"/>
      <path d="M 9.8125 72.90625 
L 19.671875 72.90625 
L 19.671875 42.09375 
L 52.390625 72.90625 
L 65.09375 72.90625 
L 28.90625 38.921875 
L 67.671875 0 
L 54.6875 0 
L 19.671875 35.109375 
L 19.671875 0 
L 9.8125 0 
z
" id="DejaVuSans-75"/>
      <path d="M 9.8125 72.90625 
L 19.671875 72.90625 
L 19.671875 5.078125 
Q 19.671875 -8.109375 14.671875 -14.0625 
Q 9.671875 -20.015625 -1.421875 -20.015625 
L -5.171875 -20.015625 
L -5.171875 -11.71875 
L -2.09375 -11.71875 
Q 4.4375 -11.71875 7.125 -8.046875 
Q 9.8125 -4.390625 9.8125 5.078125 
z
" id="DejaVuSans-74"/>
      <path d="M 19.09375 12.40625 
L 29 12.40625 
L 29 0 
L 19.09375 0 
z
M 28.71875 19.578125 
L 19.390625 19.578125 
L 19.390625 27.09375 
Q 19.390625 32.03125 20.75 35.203125 
Q 22.125 38.375 26.515625 42.578125 
L 30.90625 46.921875 
Q 33.6875 49.515625 34.9375 51.8125 
Q 36.1875 54.109375 36.1875 56.5 
Q 36.1875 60.84375 32.984375 63.53125 
Q 29.78125 66.21875 24.515625 66.21875 
Q 20.65625 66.21875 16.28125 64.5 
Q 11.921875 62.796875 7.171875 59.515625 
L 7.171875 68.703125 
Q 11.765625 71.484375 16.46875 72.84375 
Q 21.1875 74.21875 26.21875 74.21875 
Q 35.203125 74.21875 40.640625 69.484375 
Q 46.09375 64.75 46.09375 56.984375 
Q 46.09375 53.265625 44.328125 49.921875 
Q 42.578125 46.578125 38.1875 42.390625 
L 33.890625 38.1875 
Q 31.59375 35.890625 30.640625 34.59375 
Q 29.6875 33.296875 29.296875 32.078125 
Q 29 31.0625 28.859375 29.59375 
Q 28.71875 28.125 28.71875 25.59375 
z
" id="DejaVuSans-63"/>
     </defs>
     <use xlink:href="#DejaVuSans-87"/>
     <use x="93.001953" xlink:href="#DejaVuSans-101"/>
     <use x="154.525391" xlink:href="#DejaVuSans-108"/>
     <use x="182.308594" xlink:href="#DejaVuSans-99"/>
     <use x="237.289062" xlink:href="#DejaVuSans-104"/>
     <use x="300.667969" xlink:href="#DejaVuSans-101"/>
     <use x="362.191406" xlink:href="#DejaVuSans-32"/>
     <use x="393.978516" xlink:href="#DejaVuSans-83"/>
     <use x="457.455078" xlink:href="#DejaVuSans-117"/>
     <use x="520.833984" xlink:href="#DejaVuSans-112"/>
     <use x="584.310547" xlink:href="#DejaVuSans-112"/>
     <use x="647.787109" xlink:href="#DejaVuSans-101"/>
     <use x="709.310547" xlink:href="#DejaVuSans-32"/>
     <use x="741.097656" xlink:href="#DejaVuSans-104"/>
     <use x="804.476562" xlink:href="#DejaVuSans-97"/>
     <use x="865.755859" xlink:href="#DejaVuSans-116"/>
     <use x="904.964844" xlink:href="#DejaVuSans-32"/>
     <use x="936.751953" xlink:href="#DejaVuSans-100"/>
     <use x="1000.228516" xlink:href="#DejaVuSans-105"/>
     <use x="1028.011719" xlink:href="#DejaVuSans-101"/>
     <use x="1089.535156" xlink:href="#DejaVuSans-32"/>
     <use x="1121.322266" xlink:href="#DejaVuSans-109"/>
     <use x="1218.734375" xlink:href="#DejaVuSans-101"/>
     <use x="1280.257812" xlink:href="#DejaVuSans-105"/>
     <use x="1308.041016" xlink:href="#DejaVuSans-115"/>
     <use x="1360.140625" xlink:href="#DejaVuSans-116"/>
     <use x="1399.349609" xlink:href="#DejaVuSans-101"/>
     <use x="1460.873047" xlink:href="#DejaVuSans-110"/>
     <use x="1524.251953" xlink:href="#DejaVuSans-32"/>
     <use x="1556.039062" xlink:href="#DejaVuSans-115"/>
     <use x="1608.138672" xlink:href="#DejaVuSans-99"/>
     <use x="1663.119141" xlink:href="#DejaVuSans-104"/>
     <use x="1726.498047" xlink:href="#DejaVuSans-119"/>
     <use x="1808.285156" xlink:href="#DejaVuSans-101"/>
     <use x="1869.808594" xlink:href="#DejaVuSans-114"/>
     <use x="1908.671875" xlink:href="#DejaVuSans-101"/>
     <use x="1970.195312" xlink:href="#DejaVuSans-110"/>
     <use x="2033.574219" xlink:href="#DejaVuSans-32"/>
     <use x="2065.361328" xlink:href="#DejaVuSans-78"/>
     <use x="2140.166016" xlink:href="#DejaVuSans-101"/>
     <use x="2201.689453" xlink:href="#DejaVuSans-98"/>
     <use x="2265.166016" xlink:href="#DejaVuSans-101"/>
     <use x="2326.689453" xlink:href="#DejaVuSans-110"/>
     <use x="2390.068359" xlink:href="#DejaVuSans-119"/>
     <use x="2471.855469" xlink:href="#DejaVuSans-105"/>
     <use x="2499.638672" xlink:href="#DejaVuSans-114"/>
     <use x="2540.751953" xlink:href="#DejaVuSans-107"/>
     <use x="2595.537109" xlink:href="#DejaVuSans-117"/>
     <use x="2658.916016" xlink:href="#DejaVuSans-110"/>
     <use x="2722.294922" xlink:href="#DejaVuSans-103"/>
     <use x="2785.771484" xlink:href="#DejaVuSans-101"/>
     <use x="2847.294922" xlink:href="#DejaVuSans-110"/>
     <use x="2910.673828" xlink:href="#DejaVuSans-32"/>
     <use x="2942.460938" xlink:href="#DejaVuSans-98"/>
     <use x="3005.9375" xlink:href="#DejaVuSans-101"/>
     <use x="3067.460938" xlink:href="#DejaVuSans-105"/>
     <use x="3095.244141" xlink:href="#DejaVuSans-32"/>
     <use x="3127.03125" xlink:href="#DejaVuSans-75"/>
     <use x="3192.607422" xlink:href="#DejaVuSans-105"/>
     <use x="3220.390625" xlink:href="#DejaVuSans-110"/>
     <use x="3283.769531" xlink:href="#DejaVuSans-100"/>
     <use x="3347.246094" xlink:href="#DejaVuSans-101"/>
     <use x="3408.769531" xlink:href="#DejaVuSans-114"/>
     <use x="3448.132812" xlink:href="#DejaVuSans-110"/>
     <use x="3511.511719" xlink:href="#DejaVuSans-32"/>
     <use x="3543.298828" xlink:href="#DejaVuSans-117"/>
     <use x="3606.677734" xlink:href="#DejaVuSans-110"/>
     <use x="3670.056641" xlink:href="#DejaVuSans-100"/>
     <use x="3733.533203" xlink:href="#DejaVuSans-32"/>
     <use x="3765.320312" xlink:href="#DejaVuSans-74"/>
     <use x="3794.8125" xlink:href="#DejaVuSans-117"/>
     <use x="3858.191406" xlink:href="#DejaVuSans-103"/>
     <use x="3921.667969" xlink:href="#DejaVuSans-101"/>
     <use x="3983.191406" xlink:href="#DejaVuSans-110"/>
     <use x="4046.570312" xlink:href="#DejaVuSans-100"/>
     <use x="4110.046875" xlink:href="#DejaVuSans-108"/>
     <use x="4137.830078" xlink:href="#DejaVuSans-105"/>
     <use x="4165.613281" xlink:href="#DejaVuSans-99"/>
     <use x="4220.59375" xlink:href="#DejaVuSans-104"/>
     <use x="4283.972656" xlink:href="#DejaVuSans-101"/>
     <use x="4345.496094" xlink:href="#DejaVuSans-110"/>
     <use x="4408.875" xlink:href="#DejaVuSans-63"/>
    </g>
   </g>
   <g id="legend_1">
    <g id="patch_8">
     <path d="M 566.26 127.1925 
L 677.592813 127.1925 
Q 679.592813 127.1925 679.592813 125.1925 
L 679.592813 67.48 
Q 679.592813 65.48 677.592813 65.48 
L 566.26 65.48 
Q 564.26 65.48 564.26 67.48 
L 564.26 125.1925 
Q 564.26 127.1925 566.26 127.1925 
z
" style="fill:#ffffff;opacity:0.8;stroke:#cccccc;stroke-linejoin:miter;"/>
    </g>
    <g id="text_8">
     <!-- Suppen -->
     <g transform="translate(602.989687 77.078438)scale(0.1 -0.1)">
      <use xlink:href="#DejaVuSans-83"/>
      <use x="63.476562" xlink:href="#DejaVuSans-117"/>
      <use x="126.855469" xlink:href="#DejaVuSans-112"/>
      <use x="190.332031" xlink:href="#DejaVuSans-112"/>
      <use x="253.808594" xlink:href="#DejaVuSans-101"/>
      <use x="315.332031" xlink:href="#DejaVuSans-110"/>
     </g>
    </g>
    <g id="patch_9">
     <path d="M 568.26 91.756563 
L 588.26 91.756563 
L 588.26 84.756563 
L 568.26 84.756563 
z
" style="fill:#ffd700;stroke:#000000;stroke-linejoin:miter;"/>
    </g>
    <g id="text_9">
     <!-- PFIZER -->
     <g transform="translate(596.26 91.756563)scale(0.1 -0.1)">
      <use xlink:href="#DejaVuSans-80"/>
      <use x="60.302734" xlink:href="#DejaVuSans-70"/>
      <use x="117.822266" xlink:href="#DejaVuSans-73"/>
      <use x="147.314453" xlink:href="#DejaVuSans-90"/>
      <use x="215.820312" xlink:href="#DejaVuSans-69"/>
      <use x="279.003906" xlink:href="#DejaVuSans-82"/>
     </g>
    </g>
    <g id="patch_10">
     <path d="M 568.26 106.434688 
L 588.26 106.434688 
L 588.26 99.434688 
L 568.26 99.434688 
z
" style="fill:#9acd32;stroke:#000000;stroke-linejoin:miter;"/>
    </g>
    <g id="text_10">
     <!-- MODERNA -->
     <g transform="translate(596.26 106.434688)scale(0.1 -0.1)">
      <use xlink:href="#DejaVuSans-77"/>
      <use x="86.279297" xlink:href="#DejaVuSans-79"/>
      <use x="164.990234" xlink:href="#DejaVuSans-68"/>
      <use x="241.992188" xlink:href="#DejaVuSans-69"/>
      <use x="305.175781" xlink:href="#DejaVuSans-82"/>
      <use x="374.658203" xlink:href="#DejaVuSans-78"/>
      <use x="449.462891" xlink:href="#DejaVuSans-65"/>
     </g>
    </g>
    <g id="patch_11">
     <path d="M 568.26 121.112813 
L 588.26 121.112813 
L 588.26 114.112813 
L 568.26 114.112813 
z
" style="fill:#f08080;stroke:#000000;stroke-linejoin:miter;"/>
    </g>
    <g id="text_11">
     <!-- ASTRA SE NECA -->
     <g transform="translate(596.26 121.112813)scale(0.1 -0.1)">
      <use xlink:href="#DejaVuSans-65"/>
      <use x="68.408203" xlink:href="#DejaVuSans-83"/>
      <use x="131.884766" xlink:href="#DejaVuSans-84"/>
      <use x="192.96875" xlink:href="#DejaVuSans-82"/>
      <use x="258.451172" xlink:href="#DejaVuSans-65"/>
      <use x="326.859375" xlink:href="#DejaVuSans-32"/>
      <use x="358.646484" xlink:href="#DejaVuSans-83"/>
      <use x="422.123047" xlink:href="#DejaVuSans-69"/>
      <use x="485.306641" xlink:href="#DejaVuSans-32"/>
      <use x="517.09375" xlink:href="#DejaVuSans-78"/>
      <use x="591.898438" xlink:href="#DejaVuSans-69"/>
      <use x="655.082031" xlink:href="#DejaVuSans-67"/>
      <use x="724.90625" xlink:href="#DejaVuSans-65"/>
     </g>
    </g>
   </g>
  </g>
  <g id="text_12">
   <!-- Alle Fälle in den Altersgruppen 0-17, deren Diagnose irgendeinen der folgende Wörter enthalten: -->
   <g transform="translate(72 473.512125)scale(0.12 -0.12)">
    <defs>
     <path d="M 34.28125 27.484375 
Q 23.390625 27.484375 19.1875 25 
Q 14.984375 22.515625 14.984375 16.5 
Q 14.984375 11.71875 18.140625 8.90625 
Q 21.296875 6.109375 26.703125 6.109375 
Q 34.1875 6.109375 38.703125 11.40625 
Q 43.21875 16.703125 43.21875 25.484375 
L 43.21875 27.484375 
z
M 52.203125 31.203125 
L 52.203125 0 
L 43.21875 0 
L 43.21875 8.296875 
Q 40.140625 3.328125 35.546875 0.953125 
Q 30.953125 -1.421875 24.3125 -1.421875 
Q 15.921875 -1.421875 10.953125 3.296875 
Q 6 8.015625 6 15.921875 
Q 6 25.140625 12.171875 29.828125 
Q 18.359375 34.515625 30.609375 34.515625 
L 43.21875 34.515625 
L 43.21875 35.40625 
Q 43.21875 41.609375 39.140625 45 
Q 35.0625 48.390625 27.6875 48.390625 
Q 23 48.390625 18.546875 47.265625 
Q 14.109375 46.140625 10.015625 43.890625 
L 10.015625 52.203125 
Q 14.9375 54.109375 19.578125 55.046875 
Q 24.21875 56 28.609375 56 
Q 40.484375 56 46.34375 49.84375 
Q 52.203125 43.703125 52.203125 31.203125 
z
M 33.59375 75.78125 
L 43.5 75.78125 
L 43.5 65.921875 
L 33.59375 65.921875 
z
M 14.5 75.78125 
L 24.40625 75.78125 
L 24.40625 65.921875 
L 14.5 65.921875 
z
" id="DejaVuSans-228"/>
     <path d="M 31.78125 66.40625 
Q 24.171875 66.40625 20.328125 58.90625 
Q 16.5 51.421875 16.5 36.375 
Q 16.5 21.390625 20.328125 13.890625 
Q 24.171875 6.390625 31.78125 6.390625 
Q 39.453125 6.390625 43.28125 13.890625 
Q 47.125 21.390625 47.125 36.375 
Q 47.125 51.421875 43.28125 58.90625 
Q 39.453125 66.40625 31.78125 66.40625 
z
M 31.78125 74.21875 
Q 44.046875 74.21875 50.515625 64.515625 
Q 56.984375 54.828125 56.984375 36.375 
Q 56.984375 17.96875 50.515625 8.265625 
Q 44.046875 -1.421875 31.78125 -1.421875 
Q 19.53125 -1.421875 13.0625 8.265625 
Q 6.59375 17.96875 6.59375 36.375 
Q 6.59375 54.828125 13.0625 64.515625 
Q 19.53125 74.21875 31.78125 74.21875 
z
" id="DejaVuSans-48"/>
     <path d="M 4.890625 31.390625 
L 31.203125 31.390625 
L 31.203125 23.390625 
L 4.890625 23.390625 
z
" id="DejaVuSans-45"/>
     <path d="M 12.40625 8.296875 
L 28.515625 8.296875 
L 28.515625 63.921875 
L 10.984375 60.40625 
L 10.984375 69.390625 
L 28.421875 72.90625 
L 38.28125 72.90625 
L 38.28125 8.296875 
L 54.390625 8.296875 
L 54.390625 0 
L 12.40625 0 
z
" id="DejaVuSans-49"/>
     <path d="M 8.203125 72.90625 
L 55.078125 72.90625 
L 55.078125 68.703125 
L 28.609375 0 
L 18.3125 0 
L 43.21875 64.59375 
L 8.203125 64.59375 
z
" id="DejaVuSans-55"/>
     <path d="M 11.71875 12.40625 
L 22.015625 12.40625 
L 22.015625 4 
L 14.015625 -11.625 
L 7.71875 -11.625 
L 11.71875 4 
z
" id="DejaVuSans-44"/>
     <path d="M 30.609375 48.390625 
Q 23.390625 48.390625 19.1875 42.75 
Q 14.984375 37.109375 14.984375 27.296875 
Q 14.984375 17.484375 19.15625 11.84375 
Q 23.34375 6.203125 30.609375 6.203125 
Q 37.796875 6.203125 41.984375 11.859375 
Q 46.1875 17.53125 46.1875 27.296875 
Q 46.1875 37.015625 41.984375 42.703125 
Q 37.796875 48.390625 30.609375 48.390625 
z
M 30.609375 56 
Q 42.328125 56 49.015625 48.375 
Q 55.71875 40.765625 55.71875 27.296875 
Q 55.71875 13.875 49.015625 6.21875 
Q 42.328125 -1.421875 30.609375 -1.421875 
Q 18.84375 -1.421875 12.171875 6.21875 
Q 5.515625 13.875 5.515625 27.296875 
Q 5.515625 40.765625 12.171875 48.375 
Q 18.84375 56 30.609375 56 
z
" id="DejaVuSans-111"/>
     <path d="M 37.109375 75.984375 
L 37.109375 68.5 
L 28.515625 68.5 
Q 23.6875 68.5 21.796875 66.546875 
Q 19.921875 64.59375 19.921875 59.515625 
L 19.921875 54.6875 
L 34.71875 54.6875 
L 34.71875 47.703125 
L 19.921875 47.703125 
L 19.921875 0 
L 10.890625 0 
L 10.890625 47.703125 
L 2.296875 47.703125 
L 2.296875 54.6875 
L 10.890625 54.6875 
L 10.890625 58.5 
Q 10.890625 67.625 15.140625 71.796875 
Q 19.390625 75.984375 28.609375 75.984375 
z
" id="DejaVuSans-102"/>
     <path d="M 30.609375 48.390625 
Q 23.390625 48.390625 19.1875 42.75 
Q 14.984375 37.109375 14.984375 27.296875 
Q 14.984375 17.484375 19.15625 11.84375 
Q 23.34375 6.203125 30.609375 6.203125 
Q 37.796875 6.203125 41.984375 11.859375 
Q 46.1875 17.53125 46.1875 27.296875 
Q 46.1875 37.015625 41.984375 42.703125 
Q 37.796875 48.390625 30.609375 48.390625 
z
M 30.609375 56 
Q 42.328125 56 49.015625 48.375 
Q 55.71875 40.765625 55.71875 27.296875 
Q 55.71875 13.875 49.015625 6.21875 
Q 42.328125 -1.421875 30.609375 -1.421875 
Q 18.84375 -1.421875 12.171875 6.21875 
Q 5.515625 13.875 5.515625 27.296875 
Q 5.515625 40.765625 12.171875 48.375 
Q 18.84375 56 30.609375 56 
z
M 35.21875 75.78125 
L 45.125 75.78125 
L 45.125 65.921875 
L 35.21875 65.921875 
z
M 16.125 75.78125 
L 26.03125 75.78125 
L 26.03125 65.921875 
L 16.125 65.921875 
z
" id="DejaVuSans-246"/>
     <path d="M 11.71875 12.40625 
L 22.015625 12.40625 
L 22.015625 0 
L 11.71875 0 
z
M 11.71875 51.703125 
L 22.015625 51.703125 
L 22.015625 39.3125 
L 11.71875 39.3125 
z
" id="DejaVuSans-58"/>
    </defs>
    <use xlink:href="#DejaVuSans-65"/>
    <use x="68.408203" xlink:href="#DejaVuSans-108"/>
    <use x="96.191406" xlink:href="#DejaVuSans-108"/>
    <use x="123.974609" xlink:href="#DejaVuSans-101"/>
    <use x="185.498047" xlink:href="#DejaVuSans-32"/>
    <use x="217.285156" xlink:href="#DejaVuSans-70"/>
    <use x="265.679688" xlink:href="#DejaVuSans-228"/>
    <use x="326.958984" xlink:href="#DejaVuSans-108"/>
    <use x="354.742188" xlink:href="#DejaVuSans-108"/>
    <use x="382.525391" xlink:href="#DejaVuSans-101"/>
    <use x="444.048828" xlink:href="#DejaVuSans-32"/>
    <use x="475.835938" xlink:href="#DejaVuSans-105"/>
    <use x="503.619141" xlink:href="#DejaVuSans-110"/>
    <use x="566.998047" xlink:href="#DejaVuSans-32"/>
    <use x="598.785156" xlink:href="#DejaVuSans-100"/>
    <use x="662.261719" xlink:href="#DejaVuSans-101"/>
    <use x="723.785156" xlink:href="#DejaVuSans-110"/>
    <use x="787.164062" xlink:href="#DejaVuSans-32"/>
    <use x="818.951172" xlink:href="#DejaVuSans-65"/>
    <use x="887.359375" xlink:href="#DejaVuSans-108"/>
    <use x="915.142578" xlink:href="#DejaVuSans-116"/>
    <use x="954.351562" xlink:href="#DejaVuSans-101"/>
    <use x="1015.875" xlink:href="#DejaVuSans-114"/>
    <use x="1056.988281" xlink:href="#DejaVuSans-115"/>
    <use x="1109.087891" xlink:href="#DejaVuSans-103"/>
    <use x="1172.564453" xlink:href="#DejaVuSans-114"/>
    <use x="1213.677734" xlink:href="#DejaVuSans-117"/>
    <use x="1277.056641" xlink:href="#DejaVuSans-112"/>
    <use x="1340.533203" xlink:href="#DejaVuSans-112"/>
    <use x="1404.009766" xlink:href="#DejaVuSans-101"/>
    <use x="1465.533203" xlink:href="#DejaVuSans-110"/>
    <use x="1528.912109" xlink:href="#DejaVuSans-32"/>
    <use x="1560.699219" xlink:href="#DejaVuSans-48"/>
    <use x="1624.322266" xlink:href="#DejaVuSans-45"/>
    <use x="1660.40625" xlink:href="#DejaVuSans-49"/>
    <use x="1724.029297" xlink:href="#DejaVuSans-55"/>
    <use x="1787.652344" xlink:href="#DejaVuSans-44"/>
    <use x="1819.439453" xlink:href="#DejaVuSans-32"/>
    <use x="1851.226562" xlink:href="#DejaVuSans-100"/>
    <use x="1914.703125" xlink:href="#DejaVuSans-101"/>
    <use x="1976.226562" xlink:href="#DejaVuSans-114"/>
    <use x="2015.089844" xlink:href="#DejaVuSans-101"/>
    <use x="2076.613281" xlink:href="#DejaVuSans-110"/>
    <use x="2139.992188" xlink:href="#DejaVuSans-32"/>
    <use x="2171.779297" xlink:href="#DejaVuSans-68"/>
    <use x="2248.78125" xlink:href="#DejaVuSans-105"/>
    <use x="2276.564453" xlink:href="#DejaVuSans-97"/>
    <use x="2337.84375" xlink:href="#DejaVuSans-103"/>
    <use x="2401.320312" xlink:href="#DejaVuSans-110"/>
    <use x="2464.699219" xlink:href="#DejaVuSans-111"/>
    <use x="2525.880859" xlink:href="#DejaVuSans-115"/>
    <use x="2577.980469" xlink:href="#DejaVuSans-101"/>
    <use x="2639.503906" xlink:href="#DejaVuSans-32"/>
    <use x="2671.291016" xlink:href="#DejaVuSans-105"/>
    <use x="2699.074219" xlink:href="#DejaVuSans-114"/>
    <use x="2738.4375" xlink:href="#DejaVuSans-103"/>
    <use x="2801.914062" xlink:href="#DejaVuSans-101"/>
    <use x="2863.4375" xlink:href="#DejaVuSans-110"/>
    <use x="2926.816406" xlink:href="#DejaVuSans-100"/>
    <use x="2990.292969" xlink:href="#DejaVuSans-101"/>
    <use x="3051.816406" xlink:href="#DejaVuSans-105"/>
    <use x="3079.599609" xlink:href="#DejaVuSans-110"/>
    <use x="3142.978516" xlink:href="#DejaVuSans-101"/>
    <use x="3204.501953" xlink:href="#DejaVuSans-110"/>
    <use x="3267.880859" xlink:href="#DejaVuSans-32"/>
    <use x="3299.667969" xlink:href="#DejaVuSans-100"/>
    <use x="3363.144531" xlink:href="#DejaVuSans-101"/>
    <use x="3424.667969" xlink:href="#DejaVuSans-114"/>
    <use x="3465.78125" xlink:href="#DejaVuSans-32"/>
    <use x="3497.568359" xlink:href="#DejaVuSans-102"/>
    <use x="3532.773438" xlink:href="#DejaVuSans-111"/>
    <use x="3593.955078" xlink:href="#DejaVuSans-108"/>
    <use x="3621.738281" xlink:href="#DejaVuSans-103"/>
    <use x="3685.214844" xlink:href="#DejaVuSans-101"/>
    <use x="3746.738281" xlink:href="#DejaVuSans-110"/>
    <use x="3810.117188" xlink:href="#DejaVuSans-100"/>
    <use x="3873.59375" xlink:href="#DejaVuSans-101"/>
    <use x="3935.117188" xlink:href="#DejaVuSans-32"/>
    <use x="3966.904297" xlink:href="#DejaVuSans-87"/>
    <use x="4059.90625" xlink:href="#DejaVuSans-246"/>
    <use x="4121.087891" xlink:href="#DejaVuSans-114"/>
    <use x="4162.201172" xlink:href="#DejaVuSans-116"/>
    <use x="4201.410156" xlink:href="#DejaVuSans-101"/>
    <use x="4262.933594" xlink:href="#DejaVuSans-114"/>
    <use x="4304.046875" xlink:href="#DejaVuSans-32"/>
    <use x="4335.833984" xlink:href="#DejaVuSans-101"/>
    <use x="4397.357422" xlink:href="#DejaVuSans-110"/>
    <use x="4460.736328" xlink:href="#DejaVuSans-116"/>
    <use x="4499.945312" xlink:href="#DejaVuSans-104"/>
    <use x="4563.324219" xlink:href="#DejaVuSans-97"/>
    <use x="4624.603516" xlink:href="#DejaVuSans-108"/>
    <use x="4652.386719" xlink:href="#DejaVuSans-116"/>
    <use x="4691.595703" xlink:href="#DejaVuSans-101"/>
    <use x="4753.119141" xlink:href="#DejaVuSans-110"/>
    <use x="4816.498047" xlink:href="#DejaVuSans-58"/>
   </g>
   <!-- "Death|Fatal|Life Threatening|Hospitalization|Disabling" -->
   <g transform="translate(72 487.0125)scale(0.12 -0.12)">
    <defs>
     <path d="M 17.921875 72.90625 
L 17.921875 45.796875 
L 9.625 45.796875 
L 9.625 72.90625 
z
M 36.375 72.90625 
L 36.375 45.796875 
L 28.078125 45.796875 
L 28.078125 72.90625 
z
" id="DejaVuSans-34"/>
     <path d="M 21 76.421875 
L 21 -23.578125 
L 12.703125 -23.578125 
L 12.703125 76.421875 
z
" id="DejaVuSans-124"/>
     <path d="M 9.8125 72.90625 
L 19.671875 72.90625 
L 19.671875 8.296875 
L 55.171875 8.296875 
L 55.171875 0 
L 9.8125 0 
z
" id="DejaVuSans-76"/>
     <path d="M 9.8125 72.90625 
L 19.671875 72.90625 
L 19.671875 43.015625 
L 55.515625 43.015625 
L 55.515625 72.90625 
L 65.375 72.90625 
L 65.375 0 
L 55.515625 0 
L 55.515625 34.71875 
L 19.671875 34.71875 
L 19.671875 0 
L 9.8125 0 
z
" id="DejaVuSans-72"/>
     <path d="M 5.515625 54.6875 
L 48.1875 54.6875 
L 48.1875 46.484375 
L 14.40625 7.171875 
L 48.1875 7.171875 
L 48.1875 0 
L 4.296875 0 
L 4.296875 8.203125 
L 38.09375 47.515625 
L 5.515625 47.515625 
z
" id="DejaVuSans-122"/>
    </defs>
    <use xlink:href="#DejaVuSans-34"/>
    <use x="45.996094" xlink:href="#DejaVuSans-68"/>
    <use x="122.998047" xlink:href="#DejaVuSans-101"/>
    <use x="184.521484" xlink:href="#DejaVuSans-97"/>
    <use x="245.800781" xlink:href="#DejaVuSans-116"/>
    <use x="285.009766" xlink:href="#DejaVuSans-104"/>
    <use x="348.388672" xlink:href="#DejaVuSans-124"/>
    <use x="382.080078" xlink:href="#DejaVuSans-70"/>
    <use x="430.474609" xlink:href="#DejaVuSans-97"/>
    <use x="491.753906" xlink:href="#DejaVuSans-116"/>
    <use x="530.962891" xlink:href="#DejaVuSans-97"/>
    <use x="592.242188" xlink:href="#DejaVuSans-108"/>
    <use x="620.025391" xlink:href="#DejaVuSans-124"/>
    <use x="653.716797" xlink:href="#DejaVuSans-76"/>
    <use x="709.429688" xlink:href="#DejaVuSans-105"/>
    <use x="737.212891" xlink:href="#DejaVuSans-102"/>
    <use x="772.417969" xlink:href="#DejaVuSans-101"/>
    <use x="833.941406" xlink:href="#DejaVuSans-32"/>
    <use x="865.728516" xlink:href="#DejaVuSans-84"/>
    <use x="926.8125" xlink:href="#DejaVuSans-104"/>
    <use x="990.191406" xlink:href="#DejaVuSans-114"/>
    <use x="1029.054688" xlink:href="#DejaVuSans-101"/>
    <use x="1090.578125" xlink:href="#DejaVuSans-97"/>
    <use x="1151.857422" xlink:href="#DejaVuSans-116"/>
    <use x="1191.066406" xlink:href="#DejaVuSans-101"/>
    <use x="1252.589844" xlink:href="#DejaVuSans-110"/>
    <use x="1315.96875" xlink:href="#DejaVuSans-105"/>
    <use x="1343.751953" xlink:href="#DejaVuSans-110"/>
    <use x="1407.130859" xlink:href="#DejaVuSans-103"/>
    <use x="1470.607422" xlink:href="#DejaVuSans-124"/>
    <use x="1504.298828" xlink:href="#DejaVuSans-72"/>
    <use x="1579.494141" xlink:href="#DejaVuSans-111"/>
    <use x="1640.675781" xlink:href="#DejaVuSans-115"/>
    <use x="1692.775391" xlink:href="#DejaVuSans-112"/>
    <use x="1756.251953" xlink:href="#DejaVuSans-105"/>
    <use x="1784.035156" xlink:href="#DejaVuSans-116"/>
    <use x="1823.244141" xlink:href="#DejaVuSans-97"/>
    <use x="1884.523438" xlink:href="#DejaVuSans-108"/>
    <use x="1912.306641" xlink:href="#DejaVuSans-105"/>
    <use x="1940.089844" xlink:href="#DejaVuSans-122"/>
    <use x="1992.580078" xlink:href="#DejaVuSans-97"/>
    <use x="2053.859375" xlink:href="#DejaVuSans-116"/>
    <use x="2093.068359" xlink:href="#DejaVuSans-105"/>
    <use x="2120.851562" xlink:href="#DejaVuSans-111"/>
    <use x="2182.033203" xlink:href="#DejaVuSans-110"/>
    <use x="2245.412109" xlink:href="#DejaVuSans-124"/>
    <use x="2279.103516" xlink:href="#DejaVuSans-68"/>
    <use x="2356.105469" xlink:href="#DejaVuSans-105"/>
    <use x="2383.888672" xlink:href="#DejaVuSans-115"/>
    <use x="2435.988281" xlink:href="#DejaVuSans-97"/>
    <use x="2497.267578" xlink:href="#DejaVuSans-98"/>
    <use x="2560.744141" xlink:href="#DejaVuSans-108"/>
    <use x="2588.527344" xlink:href="#DejaVuSans-105"/>
    <use x="2616.310547" xlink:href="#DejaVuSans-110"/>
    <use x="2679.689453" xlink:href="#DejaVuSans-103"/>
    <use x="2743.166016" xlink:href="#DejaVuSans-34"/>
   </g>
   <!-- Quelle: EMA-Datenbank www.adrreports.eu/ -->
   <g transform="translate(72 500.783625)scale(0.12 -0.12)">
    <defs>
     <path d="M 39.40625 66.21875 
Q 28.65625 66.21875 22.328125 58.203125 
Q 16.015625 50.203125 16.015625 36.375 
Q 16.015625 22.609375 22.328125 14.59375 
Q 28.65625 6.59375 39.40625 6.59375 
Q 50.140625 6.59375 56.421875 14.59375 
Q 62.703125 22.609375 62.703125 36.375 
Q 62.703125 50.203125 56.421875 58.203125 
Q 50.140625 66.21875 39.40625 66.21875 
z
M 53.21875 1.3125 
L 66.21875 -12.890625 
L 54.296875 -12.890625 
L 43.5 -1.21875 
Q 41.890625 -1.3125 41.03125 -1.359375 
Q 40.1875 -1.421875 39.40625 -1.421875 
Q 24.03125 -1.421875 14.8125 8.859375 
Q 5.609375 19.140625 5.609375 36.375 
Q 5.609375 53.65625 14.8125 63.9375 
Q 24.03125 74.21875 39.40625 74.21875 
Q 54.734375 74.21875 63.90625 63.9375 
Q 73.09375 53.65625 73.09375 36.375 
Q 73.09375 23.6875 67.984375 14.640625 
Q 62.890625 5.609375 53.21875 1.3125 
z
" id="DejaVuSans-81"/>
     <path d="M 10.6875 12.40625 
L 21 12.40625 
L 21 0 
L 10.6875 0 
z
" id="DejaVuSans-46"/>
     <path d="M 25.390625 72.90625 
L 33.6875 72.90625 
L 8.296875 -9.28125 
L 0 -9.28125 
z
" id="DejaVuSans-47"/>
    </defs>
    <use xlink:href="#DejaVuSans-81"/>
    <use x="78.710938" xlink:href="#DejaVuSans-117"/>
    <use x="142.089844" xlink:href="#DejaVuSans-101"/>
    <use x="203.613281" xlink:href="#DejaVuSans-108"/>
    <use x="231.396484" xlink:href="#DejaVuSans-108"/>
    <use x="259.179688" xlink:href="#DejaVuSans-101"/>
    <use x="320.703125" xlink:href="#DejaVuSans-58"/>
    <use x="354.394531" xlink:href="#DejaVuSans-32"/>
    <use x="386.181641" xlink:href="#DejaVuSans-69"/>
    <use x="449.365234" xlink:href="#DejaVuSans-77"/>
    <use x="535.644531" xlink:href="#DejaVuSans-65"/>
    <use x="601.802734" xlink:href="#DejaVuSans-45"/>
    <use x="637.886719" xlink:href="#DejaVuSans-68"/>
    <use x="714.888672" xlink:href="#DejaVuSans-97"/>
    <use x="776.167969" xlink:href="#DejaVuSans-116"/>
    <use x="815.376953" xlink:href="#DejaVuSans-101"/>
    <use x="876.900391" xlink:href="#DejaVuSans-110"/>
    <use x="940.279297" xlink:href="#DejaVuSans-98"/>
    <use x="1003.755859" xlink:href="#DejaVuSans-97"/>
    <use x="1065.035156" xlink:href="#DejaVuSans-110"/>
    <use x="1128.414062" xlink:href="#DejaVuSans-107"/>
    <use x="1186.324219" xlink:href="#DejaVuSans-32"/>
    <use x="1218.111328" xlink:href="#DejaVuSans-119"/>
    <use x="1299.898438" xlink:href="#DejaVuSans-119"/>
    <use x="1381.685547" xlink:href="#DejaVuSans-119"/>
    <use x="1454.347656" xlink:href="#DejaVuSans-46"/>
    <use x="1486.134766" xlink:href="#DejaVuSans-97"/>
    <use x="1547.414062" xlink:href="#DejaVuSans-100"/>
    <use x="1610.890625" xlink:href="#DejaVuSans-114"/>
    <use x="1650.253906" xlink:href="#DejaVuSans-114"/>
    <use x="1689.117188" xlink:href="#DejaVuSans-101"/>
    <use x="1750.640625" xlink:href="#DejaVuSans-112"/>
    <use x="1814.117188" xlink:href="#DejaVuSans-111"/>
    <use x="1875.298828" xlink:href="#DejaVuSans-114"/>
    <use x="1916.412109" xlink:href="#DejaVuSans-116"/>
    <use x="1955.621094" xlink:href="#DejaVuSans-115"/>
    <use x="2007.720703" xlink:href="#DejaVuSans-46"/>
    <use x="2039.507812" xlink:href="#DejaVuSans-101"/>
    <use x="2101.03125" xlink:href="#DejaVuSans-117"/>
    <use x="2164.410156" xlink:href="#DejaVuSans-47"/>
   </g>
  </g>
 </g>
</svg>
